<svg width="188" height="52" viewBox="0 0 188 52" fill="none" xmlns="http://www.w3.org/2000/svg">
<rect width="188" height="52" rx="26" fill="#FAFBFC"/>
<g clip-path="url(#clip0)">
<path d="M28.2582 39.4758C27.7062 39.1085 27.2169 38.6547 26.8092 38.1318C26.3608 37.592 25.9453 37.0258 25.565 36.436C24.6726 35.1286 23.9727 33.6997 23.4869 32.1931C22.9032 30.4431 22.6206 28.7658 22.6206 27.1251C22.6206 25.2929 23.017 23.6934 23.7922 22.3494C24.3669 21.2989 25.2118 20.4211 26.2396 19.8066C27.2356 19.188 28.3801 18.8494 29.5524 18.8266C29.9627 18.8266 30.4046 18.8861 30.8736 18.9999C31.2105 19.0953 31.6209 19.2458 32.1222 19.433C32.7601 19.6789 33.111 19.8294 33.23 19.8661C33.6036 20.0026 33.9177 20.0621 34.1645 20.0621C34.3517 20.0621 34.616 20.0026 34.9161 19.9116C35.085 19.8521 35.4035 19.7471 35.8594 19.552C36.3109 19.3875 36.6661 19.2466 36.9487 19.1416C37.3819 19.0139 37.801 18.8958 38.1746 18.8363C38.6175 18.7664 39.0671 18.7479 39.5142 18.7811C40.2891 18.8318 41.0524 18.996 41.7796 19.2685C42.9687 19.7471 43.9304 20.4944 44.6461 21.5566C44.3436 21.7431 44.0597 21.9582 43.7982 22.1989C43.2291 22.7034 42.7444 23.2957 42.3624 23.9533C41.863 24.852 41.6041 25.8643 41.6107 26.8924C41.6291 28.155 41.9529 29.2671 42.5907 30.2288C43.0597 30.9415 43.6692 31.5509 44.3819 32.0199C44.7467 32.2658 45.0609 32.4346 45.3619 32.5484C45.221 32.9859 45.0705 33.4094 44.8929 33.8294C44.49 34.7712 44.0018 35.6742 43.4342 36.527C42.9285 37.2611 42.5321 37.808 42.2311 38.172C41.7621 38.7276 41.3106 39.152 40.8547 39.4478C40.3534 39.7803 39.761 39.9579 39.159 39.9579C38.7513 39.9736 38.3437 39.9242 37.9515 39.8118C37.6146 39.698 37.2812 39.5746 36.9531 39.4338C36.612 39.2771 36.2602 39.1446 35.9005 39.0374C35.0112 38.809 34.0788 38.8075 33.1889 39.033C32.824 39.138 32.4731 39.2605 32.1266 39.411C31.6392 39.6158 31.3155 39.7531 31.1282 39.8118C30.7546 39.9211 30.367 39.9894 29.975 40.0121C29.3686 40.0121 28.8034 39.8389 28.2434 39.488L28.2582 39.4758ZM36.2557 17.9376C35.463 18.334 34.7061 18.5029 33.9545 18.4478C33.8364 17.6909 33.9545 16.9165 34.2686 16.0686C34.536 15.3503 34.9312 14.6863 35.435 14.1086C35.967 13.5005 36.6126 13.0021 37.3355 12.6413C38.1055 12.2449 38.8396 12.0305 39.5414 11.999C39.6324 12.7918 39.5414 13.5714 39.25 14.414C38.9803 15.1589 38.5859 15.8525 38.0836 16.465C37.5709 17.074 36.9417 17.5743 36.233 17.9368L36.2557 17.9376Z" fill="#040415"/>
</g>
<path d="M72.802 29.71H67.33L66.322 32.5H64.594L69.13 20.026H71.02L75.538 32.5H73.81L72.802 29.71ZM72.334 28.378L70.066 22.042L67.798 28.378H72.334ZM79.1529 24.454C79.4769 23.89 79.9569 23.422 80.5929 23.05C81.2409 22.666 81.9909 22.474 82.8429 22.474C83.7189 22.474 84.5109 22.684 85.2189 23.104C85.9389 23.524 86.5029 24.118 86.9109 24.886C87.3189 25.642 87.5229 26.524 87.5229 27.532C87.5229 28.528 87.3189 29.416 86.9109 30.196C86.5029 30.976 85.9389 31.582 85.2189 32.014C84.5109 32.446 83.7189 32.662 82.8429 32.662C82.0029 32.662 81.2589 32.476 80.6109 32.104C79.9749 31.72 79.4889 31.246 79.1529 30.682V37.18H77.5149V22.636H79.1529V24.454ZM85.8489 27.532C85.8489 26.788 85.6989 26.14 85.3989 25.588C85.0989 25.036 84.6909 24.616 84.1749 24.328C83.6709 24.04 83.1129 23.896 82.5009 23.896C81.9009 23.896 81.3429 24.046 80.8269 24.346C80.3229 24.634 79.9149 25.06 79.6029 25.624C79.3029 26.176 79.1529 26.818 79.1529 27.55C79.1529 28.294 79.3029 28.948 79.6029 29.512C79.9149 30.064 80.3229 30.49 80.8269 30.79C81.3429 31.078 81.9009 31.222 82.5009 31.222C83.1129 31.222 83.6709 31.078 84.1749 30.79C84.6909 30.49 85.0989 30.064 85.3989 29.512C85.6989 28.948 85.8489 28.288 85.8489 27.532ZM91.317 24.454C91.641 23.89 92.121 23.422 92.757 23.05C93.405 22.666 94.155 22.474 95.007 22.474C95.883 22.474 96.675 22.684 97.383 23.104C98.103 23.524 98.667 24.118 99.075 24.886C99.483 25.642 99.687 26.524 99.687 27.532C99.687 28.528 99.483 29.416 99.075 30.196C98.667 30.976 98.103 31.582 97.383 32.014C96.675 32.446 95.883 32.662 95.007 32.662C94.167 32.662 93.423 32.476 92.775 32.104C92.139 31.72 91.653 31.246 91.317 30.682V37.18H89.679V22.636H91.317V24.454ZM98.013 27.532C98.013 26.788 97.863 26.14 97.563 25.588C97.263 25.036 96.855 24.616 96.339 24.328C95.835 24.04 95.277 23.896 94.665 23.896C94.065 23.896 93.507 24.046 92.991 24.346C92.487 24.634 92.079 25.06 91.767 25.624C91.467 26.176 91.317 26.818 91.317 27.55C91.317 28.294 91.467 28.948 91.767 29.512C92.079 30.064 92.487 30.49 92.991 30.79C93.507 31.078 94.065 31.222 94.665 31.222C95.277 31.222 95.835 31.078 96.339 30.79C96.855 30.49 97.263 30.064 97.563 29.512C97.863 28.948 98.013 28.288 98.013 27.532ZM103.481 19.18V32.5H101.843V19.18H103.481ZM115.273 27.19C115.273 27.502 115.255 27.832 115.219 28.18H107.335C107.395 29.152 107.725 29.914 108.325 30.466C108.937 31.006 109.675 31.276 110.539 31.276C111.247 31.276 111.835 31.114 112.303 30.79C112.783 30.454 113.119 30.01 113.311 29.458H115.075C114.811 30.406 114.283 31.18 113.491 31.78C112.699 32.368 111.715 32.662 110.539 32.662C109.603 32.662 108.763 32.452 108.019 32.032C107.287 31.612 106.711 31.018 106.291 30.25C105.871 29.47 105.661 28.57 105.661 27.55C105.661 26.53 105.865 25.636 106.273 24.868C106.681 24.1 107.251 23.512 107.983 23.104C108.727 22.684 109.579 22.474 110.539 22.474C111.475 22.474 112.303 22.678 113.023 23.086C113.743 23.494 114.295 24.058 114.679 24.778C115.075 25.486 115.273 26.29 115.273 27.19ZM113.581 26.848C113.581 26.224 113.443 25.69 113.167 25.246C112.891 24.79 112.513 24.448 112.033 24.22C111.565 23.98 111.043 23.86 110.467 23.86C109.639 23.86 108.931 24.124 108.343 24.652C107.767 25.18 107.437 25.912 107.353 26.848H113.581ZM126.212 32.626C125.384 32.626 124.64 32.482 123.98 32.194C123.332 31.894 122.822 31.486 122.45 30.97C122.078 30.442 121.886 29.836 121.874 29.152H123.62C123.68 29.74 123.92 30.238 124.34 30.646C124.772 31.042 125.396 31.24 126.212 31.24C126.992 31.24 127.604 31.048 128.048 30.664C128.504 30.268 128.732 29.764 128.732 29.152C128.732 28.672 128.6 28.282 128.336 27.982C128.072 27.682 127.742 27.454 127.346 27.298C126.95 27.142 126.416 26.974 125.744 26.794C124.916 26.578 124.25 26.362 123.746 26.146C123.254 25.93 122.828 25.594 122.468 25.138C122.12 24.67 121.946 24.046 121.946 23.266C121.946 22.582 122.12 21.976 122.468 21.448C122.816 20.92 123.302 20.512 123.926 20.224C124.562 19.936 125.288 19.792 126.104 19.792C127.28 19.792 128.24 20.086 128.984 20.674C129.74 21.262 130.166 22.042 130.262 23.014H128.462C128.402 22.534 128.15 22.114 127.706 21.754C127.262 21.382 126.674 21.196 125.942 21.196C125.258 21.196 124.7 21.376 124.268 21.736C123.836 22.084 123.62 22.576 123.62 23.212C123.62 23.668 123.746 24.04 123.998 24.328C124.262 24.616 124.58 24.838 124.952 24.994C125.336 25.138 125.87 25.306 126.554 25.498C127.382 25.726 128.048 25.954 128.552 26.182C129.056 26.398 129.488 26.74 129.848 27.208C130.208 27.664 130.388 28.288 130.388 29.08C130.388 29.692 130.226 30.268 129.902 30.808C129.578 31.348 129.098 31.786 128.462 32.122C127.826 32.458 127.076 32.626 126.212 32.626ZM134.796 23.986V29.8C134.796 30.28 134.898 30.622 135.102 30.826C135.306 31.018 135.66 31.114 136.164 31.114H137.37V32.5H135.894C134.982 32.5 134.298 32.29 133.842 31.87C133.386 31.45 133.158 30.76 133.158 29.8V23.986H131.88V22.636H133.158V20.152H134.796V22.636H137.37V23.986H134.796ZM143.657 32.662C142.733 32.662 141.893 32.452 141.137 32.032C140.393 31.612 139.805 31.018 139.373 30.25C138.953 29.47 138.743 28.57 138.743 27.55C138.743 26.542 138.959 25.654 139.391 24.886C139.835 24.106 140.435 23.512 141.191 23.104C141.947 22.684 142.793 22.474 143.729 22.474C144.665 22.474 145.511 22.684 146.267 23.104C147.023 23.512 147.617 24.1 148.049 24.868C148.493 25.636 148.715 26.53 148.715 27.55C148.715 28.57 148.487 29.47 148.031 30.25C147.587 31.018 146.981 31.612 146.213 32.032C145.445 32.452 144.593 32.662 143.657 32.662ZM143.657 31.222C144.245 31.222 144.797 31.084 145.313 30.808C145.829 30.532 146.243 30.118 146.555 29.566C146.879 29.014 147.041 28.342 147.041 27.55C147.041 26.758 146.885 26.086 146.573 25.534C146.261 24.982 145.853 24.574 145.349 24.31C144.845 24.034 144.299 23.896 143.711 23.896C143.111 23.896 142.559 24.034 142.055 24.31C141.563 24.574 141.167 24.982 140.867 25.534C140.567 26.086 140.417 26.758 140.417 27.55C140.417 28.354 140.561 29.032 140.849 29.584C141.149 30.136 141.545 30.55 142.037 30.826C142.529 31.09 143.069 31.222 143.657 31.222ZM152.506 24.238C152.794 23.674 153.202 23.236 153.73 22.924C154.27 22.612 154.924 22.456 155.692 22.456V24.148H155.26C153.424 24.148 152.506 25.144 152.506 27.136V32.5H150.868V22.636H152.506V24.238ZM166.583 27.19C166.583 27.502 166.565 27.832 166.529 28.18H158.645C158.705 29.152 159.035 29.914 159.635 30.466C160.247 31.006 160.985 31.276 161.849 31.276C162.557 31.276 163.145 31.114 163.613 30.79C164.093 30.454 164.429 30.01 164.621 29.458H166.385C166.121 30.406 165.593 31.18 164.801 31.78C164.009 32.368 163.025 32.662 161.849 32.662C160.913 32.662 160.073 32.452 159.329 32.032C158.597 31.612 158.021 31.018 157.601 30.25C157.181 29.47 156.971 28.57 156.971 27.55C156.971 26.53 157.175 25.636 157.583 24.868C157.991 24.1 158.561 23.512 159.293 23.104C160.037 22.684 160.889 22.474 161.849 22.474C162.785 22.474 163.613 22.678 164.333 23.086C165.053 23.494 165.605 24.058 165.989 24.778C166.385 25.486 166.583 26.29 166.583 27.19ZM164.891 26.848C164.891 26.224 164.753 25.69 164.477 25.246C164.201 24.79 163.823 24.448 163.343 24.22C162.875 23.98 162.353 23.86 161.777 23.86C160.949 23.86 160.241 24.124 159.653 24.652C159.077 25.18 158.747 25.912 158.663 26.848H164.891Z" fill="#040415"/>
<defs>
<clipPath id="clip0">
<rect width="28" height="28" fill="white" transform="translate(20 12)"/>
</clipPath>
</defs>
</svg>
