<svg width="191" height="52" viewBox="0 0 191 52" fill="none" xmlns="http://www.w3.org/2000/svg">
<rect width="191" height="52" rx="26" fill="#FAFBFC"/>
<g clip-path="url(#clip0)">
<path d="M40.9106 21.6042C37.6579 19.7849 32.4372 16.8636 24.3395 12.3295C23.7935 11.9689 23.1654 11.9217 22.6227 12.1054L36.5161 25.9988L40.9106 21.6042Z" fill="#32BBFF"/>
<path d="M22.6228 12.1055C22.5211 12.1399 22.4221 12.1815 22.3274 12.2317C21.7281 12.5559 21.2877 13.1797 21.2877 13.9687V38.029C21.2877 38.818 21.7281 39.4418 22.3274 39.766C22.4219 39.8161 22.5209 39.8578 22.6225 39.8925L36.5162 25.9989L22.6228 12.1055Z" fill="#32BBFF"/>
<path d="M36.5163 25.999L22.6226 39.8927C23.1654 40.0777 23.7936 40.0341 24.3397 39.6683C32.1927 35.2709 37.3546 32.3841 40.6449 30.5494C40.7365 30.4979 40.8263 30.4476 40.915 30.3978L36.5163 25.999Z" fill="#32BBFF"/>
<path d="M21.2877 25.999V38.0292C21.2877 38.8182 21.7281 39.442 22.3274 39.7662C22.4219 39.8163 22.5209 39.858 22.6225 39.8927L36.5162 25.999H21.2877Z" fill="#2C9FD9"/>
<path d="M24.3397 12.3297C23.6914 11.9016 22.9268 11.9138 22.3275 12.2318L36.3054 26.2097L40.9107 21.6044C37.6581 19.7851 32.4374 16.8637 24.3397 12.3297Z" fill="#29CC5E"/>
<path d="M36.3055 25.7881L22.3275 39.766C22.9269 40.084 23.6914 40.1023 24.3397 39.6681C32.1927 35.2707 37.3546 32.384 40.6449 30.5492C40.7365 30.4977 40.8263 30.4474 40.915 30.3976L36.3055 25.7881Z" fill="#D93F21"/>
<path d="M46.7122 25.9989C46.7122 25.3323 46.3758 24.6595 45.7091 24.2864C45.7091 24.2864 44.4623 23.5908 40.6405 21.4531L36.0947 25.9989L40.645 30.5492C44.4247 28.4269 45.709 27.7114 45.709 27.7114C46.3758 27.3383 46.7122 26.6656 46.7122 25.9989Z" fill="#FFD500"/>
<path d="M45.7091 27.7115C46.3758 27.3384 46.7122 26.6657 46.7122 25.999H36.0947L40.645 30.5493C44.4248 28.4271 45.7091 27.7115 45.7091 27.7115Z" fill="#FFAA00"/>
</g>
<path d="M74.89 23.59C74.542 22.858 74.038 22.294 73.378 21.898C72.718 21.49 71.95 21.286 71.074 21.286C70.198 21.286 69.406 21.49 68.698 21.898C68.002 22.294 67.45 22.87 67.042 23.626C66.646 24.37 66.448 25.234 66.448 26.218C66.448 27.202 66.646 28.066 67.042 28.81C67.45 29.554 68.002 30.13 68.698 30.538C69.406 30.934 70.198 31.132 71.074 31.132C72.298 31.132 73.306 30.766 74.098 30.034C74.89 29.302 75.352 28.312 75.484 27.064H70.48V25.732H77.23V26.992C77.134 28.024 76.81 28.972 76.258 29.836C75.706 30.688 74.98 31.366 74.08 31.87C73.18 32.362 72.178 32.608 71.074 32.608C69.91 32.608 68.848 32.338 67.888 31.798C66.928 31.246 66.166 30.484 65.602 29.512C65.05 28.54 64.774 27.442 64.774 26.218C64.774 24.994 65.05 23.896 65.602 22.924C66.166 21.94 66.928 21.178 67.888 20.638C68.848 20.086 69.91 19.81 71.074 19.81C72.406 19.81 73.582 20.14 74.602 20.8C75.634 21.46 76.384 22.39 76.852 23.59H74.89ZM83.6978 32.662C82.7738 32.662 81.9338 32.452 81.1778 32.032C80.4338 31.612 79.8458 31.018 79.4138 30.25C78.9938 29.47 78.7838 28.57 78.7838 27.55C78.7838 26.542 78.9998 25.654 79.4318 24.886C79.8758 24.106 80.4758 23.512 81.2318 23.104C81.9878 22.684 82.8338 22.474 83.7698 22.474C84.7058 22.474 85.5518 22.684 86.3078 23.104C87.0638 23.512 87.6578 24.1 88.0898 24.868C88.5338 25.636 88.7558 26.53 88.7558 27.55C88.7558 28.57 88.5278 29.47 88.0718 30.25C87.6278 31.018 87.0218 31.612 86.2538 32.032C85.4858 32.452 84.6338 32.662 83.6978 32.662ZM83.6978 31.222C84.2858 31.222 84.8378 31.084 85.3538 30.808C85.8698 30.532 86.2838 30.118 86.5958 29.566C86.9198 29.014 87.0818 28.342 87.0818 27.55C87.0818 26.758 86.9258 26.086 86.6138 25.534C86.3018 24.982 85.8938 24.574 85.3898 24.31C84.8858 24.034 84.3398 23.896 83.7518 23.896C83.1518 23.896 82.5998 24.034 82.0958 24.31C81.6038 24.574 81.2078 24.982 80.9078 25.534C80.6078 26.086 80.4578 26.758 80.4578 27.55C80.4578 28.354 80.6018 29.032 80.8898 29.584C81.1898 30.136 81.5858 30.55 82.0778 30.826C82.5698 31.09 83.1098 31.222 83.6978 31.222ZM95.2114 32.662C94.2874 32.662 93.4474 32.452 92.6914 32.032C91.9474 31.612 91.3594 31.018 90.9274 30.25C90.5074 29.47 90.2974 28.57 90.2974 27.55C90.2974 26.542 90.5134 25.654 90.9454 24.886C91.3894 24.106 91.9894 23.512 92.7454 23.104C93.5014 22.684 94.3474 22.474 95.2834 22.474C96.2194 22.474 97.0654 22.684 97.8214 23.104C98.5774 23.512 99.1714 24.1 99.6034 24.868C100.047 25.636 100.269 26.53 100.269 27.55C100.269 28.57 100.041 29.47 99.5854 30.25C99.1414 31.018 98.5354 31.612 97.7674 32.032C96.9994 32.452 96.1474 32.662 95.2114 32.662ZM95.2114 31.222C95.7994 31.222 96.3514 31.084 96.8674 30.808C97.3834 30.532 97.7974 30.118 98.1094 29.566C98.4334 29.014 98.5954 28.342 98.5954 27.55C98.5954 26.758 98.4394 26.086 98.1274 25.534C97.8154 24.982 97.4074 24.574 96.9034 24.31C96.3994 24.034 95.8534 23.896 95.2654 23.896C94.6654 23.896 94.1134 24.034 93.6094 24.31C93.1174 24.574 92.7214 24.982 92.4214 25.534C92.1214 26.086 91.9714 26.758 91.9714 27.55C91.9714 28.354 92.1154 29.032 92.4034 29.584C92.7034 30.136 93.0994 30.55 93.5914 30.826C94.0834 31.09 94.6234 31.222 95.2114 31.222ZM106.491 22.474C107.343 22.474 108.087 22.66 108.723 23.032C109.371 23.404 109.851 23.872 110.163 24.436V22.636H111.819V32.716C111.819 33.616 111.627 34.414 111.243 35.11C110.859 35.818 110.307 36.37 109.587 36.766C108.879 37.162 108.051 37.36 107.103 37.36C105.807 37.36 104.727 37.054 103.863 36.442C102.999 35.83 102.489 34.996 102.333 33.94H103.953C104.133 34.54 104.505 35.02 105.069 35.38C105.633 35.752 106.311 35.938 107.103 35.938C108.003 35.938 108.735 35.656 109.299 35.092C109.875 34.528 110.163 33.736 110.163 32.716V30.646C109.839 31.222 109.359 31.702 108.723 32.086C108.087 32.47 107.343 32.662 106.491 32.662C105.615 32.662 104.817 32.446 104.097 32.014C103.389 31.582 102.831 30.976 102.423 30.196C102.015 29.416 101.811 28.528 101.811 27.532C101.811 26.524 102.015 25.642 102.423 24.886C102.831 24.118 103.389 23.524 104.097 23.104C104.817 22.684 105.615 22.474 106.491 22.474ZM110.163 27.55C110.163 26.806 110.013 26.158 109.713 25.606C109.413 25.054 109.005 24.634 108.489 24.346C107.985 24.046 107.427 23.896 106.815 23.896C106.203 23.896 105.645 24.04 105.141 24.328C104.637 24.616 104.235 25.036 103.935 25.588C103.635 26.14 103.485 26.788 103.485 27.532C103.485 28.288 103.635 28.948 103.935 29.512C104.235 30.064 104.637 30.49 105.141 30.79C105.645 31.078 106.203 31.222 106.815 31.222C107.427 31.222 107.985 31.078 108.489 30.79C109.005 30.49 109.413 30.064 109.713 29.512C110.013 28.948 110.163 28.294 110.163 27.55ZM116.225 19.18V32.5H114.587V19.18H116.225ZM128.017 27.19C128.017 27.502 127.999 27.832 127.963 28.18H120.079C120.139 29.152 120.469 29.914 121.069 30.466C121.681 31.006 122.419 31.276 123.283 31.276C123.991 31.276 124.579 31.114 125.047 30.79C125.527 30.454 125.863 30.01 126.055 29.458H127.819C127.555 30.406 127.027 31.18 126.235 31.78C125.443 32.368 124.459 32.662 123.283 32.662C122.347 32.662 121.507 32.452 120.763 32.032C120.031 31.612 119.455 31.018 119.035 30.25C118.615 29.47 118.405 28.57 118.405 27.55C118.405 26.53 118.609 25.636 119.017 24.868C119.425 24.1 119.995 23.512 120.727 23.104C121.471 22.684 122.323 22.474 123.283 22.474C124.219 22.474 125.047 22.678 125.767 23.086C126.487 23.494 127.039 24.058 127.423 24.778C127.819 25.486 128.017 26.29 128.017 27.19ZM126.325 26.848C126.325 26.224 126.187 25.69 125.911 25.246C125.635 24.79 125.257 24.448 124.777 24.22C124.309 23.98 123.787 23.86 123.211 23.86C122.383 23.86 121.675 24.124 121.087 24.652C120.511 25.18 120.181 25.912 120.097 26.848H126.325ZM143.366 23.626C143.366 24.67 143.006 25.54 142.286 26.236C141.578 26.92 140.492 27.262 139.028 27.262H136.616V32.5H134.978V19.954H139.028C140.444 19.954 141.518 20.296 142.25 20.98C142.994 21.664 143.366 22.546 143.366 23.626ZM139.028 25.912C139.94 25.912 140.612 25.714 141.044 25.318C141.476 24.922 141.692 24.358 141.692 23.626C141.692 22.078 140.804 21.304 139.028 21.304H136.616V25.912H139.028ZM147.04 19.18V32.5H145.402V19.18H147.04ZM149.219 27.532C149.219 26.524 149.423 25.642 149.831 24.886C150.239 24.118 150.797 23.524 151.505 23.104C152.225 22.684 153.023 22.474 153.899 22.474C154.763 22.474 155.513 22.66 156.149 23.032C156.785 23.404 157.259 23.872 157.571 24.436V22.636H159.227V32.5H157.571V30.664C157.247 31.24 156.761 31.72 156.113 32.104C155.477 32.476 154.733 32.662 153.881 32.662C153.005 32.662 152.213 32.446 151.505 32.014C150.797 31.582 150.239 30.976 149.831 30.196C149.423 29.416 149.219 28.528 149.219 27.532ZM157.571 27.55C157.571 26.806 157.421 26.158 157.121 25.606C156.821 25.054 156.413 24.634 155.897 24.346C155.393 24.046 154.835 23.896 154.223 23.896C153.611 23.896 153.053 24.04 152.549 24.328C152.045 24.616 151.643 25.036 151.343 25.588C151.043 26.14 150.893 26.788 150.893 27.532C150.893 28.288 151.043 28.948 151.343 29.512C151.643 30.064 152.045 30.49 152.549 30.79C153.053 31.078 153.611 31.222 154.223 31.222C154.835 31.222 155.393 31.078 155.897 30.79C156.413 30.49 156.821 30.064 157.121 29.512C157.421 28.948 157.571 28.294 157.571 27.55ZM170.491 22.636L164.551 37.144H162.859L164.803 32.392L160.825 22.636H162.643L165.739 30.628L168.799 22.636H170.491Z" fill="#040415"/>
<defs>
<clipPath id="clip0">
<rect width="28" height="28" fill="white" transform="translate(20 12)"/>
</clipPath>
</defs>
</svg>
