<svg width="72" height="72" viewBox="0 0 72 72" fill="none" xmlns="http://www.w3.org/2000/svg">
<path d="M36.0002 68C54.075 68 68.7275 53.6731 68.7275 36C68.7275 18.3269 54.075 4 36.0002 4C17.9254 4 3.27295 18.3269 3.27295 36C3.27295 53.6731 17.9254 68 36.0002 68Z" fill="white"/>
<path d="M36.0001 69.5999C54.9786 69.5999 70.3637 54.5567 70.3637 35.9999C70.3637 17.4431 54.9786 2.3999 36.0001 2.3999C17.0216 2.3999 1.63647 17.4431 1.63647 35.9999C1.63647 54.5567 17.0216 69.5999 36.0001 69.5999Z" stroke="#007E21" stroke-width="3"/>
<path d="M36.0003 65.5999C52.7194 65.5999 66.273 52.3475 66.273 35.9999C66.273 19.6523 52.7194 6.3999 36.0003 6.3999C19.2811 6.3999 5.72754 19.6523 5.72754 35.9999C5.72754 52.3475 19.2811 65.5999 36.0003 65.5999Z" stroke="#BED776" stroke-width="5"/>
<path d="M24.5454 38.3998L31.0909 44.7998L47.4545 28.7998" stroke="#007E21" stroke-width="3" stroke-linecap="round" stroke-linejoin="round"/>
</svg>
