<svg width="641" height="501" viewBox="0 0 641 501" fill="none" xmlns="http://www.w3.org/2000/svg">
<g opacity="0.25">
<g opacity="0.2443">
<path opacity="0.2443" d="M256.883 430.598L212.234 373.736L197.657 427.84L256.883 430.598ZM212.759 376.362L254.387 429.416L199.102 426.789L212.759 376.362Z" fill="#072247"/>
</g>
<g opacity="0.5761">
<path opacity="0.5761" d="M218.274 164.806L217.749 163.756L180.192 182.534L176.909 192.383L218.274 164.806ZM181.111 183.322L210.001 168.877L179.01 189.626L181.111 183.322Z" fill="#072247"/>
</g>
<g opacity="0.1811">
<path opacity="0.1811" d="M167.585 131.845L160.1 64.478L115.188 100.854L167.585 131.845ZM159.312 66.7104L166.272 129.613L117.29 100.722L159.312 66.7104Z" fill="#072247"/>
</g>
<g opacity="0.6975">
<path opacity="0.6975" d="M530.29 402.495L529.765 401.839L489.581 358.897L496.016 415.89L530.29 402.495ZM491.026 362.311L528.32 402.101L496.935 414.445L491.026 362.311Z" fill="#072247"/>
</g>
<g opacity="0.054651">
<path opacity="0.054651" d="M199.233 427.708L188.465 405.515L187.94 405.778L95.3593 450.295L199.233 427.708ZM187.94 407.091L197.526 426.921L104.814 447.012L187.94 407.091Z" fill="#072247"/>
</g>
<g opacity="0.341">
<path opacity="0.341" d="M107.441 273.539L31.1438 315.167L82.4898 321.865L82.6212 321.471L107.441 273.539ZM34.8208 314.511L104.683 276.297L81.8332 320.683L34.8208 314.511Z" fill="#072247"/>
</g>
<g opacity="0.4395">
<path opacity="0.4395" d="M33.7702 315.299L6.84961 256.73L-5.49445 327.774L33.7702 315.299ZM7.37489 260.538L32.1943 314.511L-3.91861 326.067L7.37489 260.538Z" fill="#072247"/>
</g>
<g opacity="0.8687">
<path opacity="0.8687" d="M117.027 101.248L99.5613 47.2751L98.9047 47.669L0.152283 118.188L117.027 101.248ZM99.0361 49.1136L115.582 100.328L4.74847 116.349L99.0361 49.1136Z" fill="#072247"/>
</g>
<g opacity="0.6378">
<path opacity="0.6378" d="M532.523 400.394L495.228 415.102L506.39 421.799L532.523 400.394ZM497.723 415.233L525.957 404.202L506.127 420.355L497.723 415.233Z" fill="#072247"/>
</g>
<g opacity="0.6534">
<path opacity="0.6534" d="M535.018 557.19L512.956 461.983L483.54 569.928L535.018 557.19ZM512.825 466.71L533.573 556.402L485.248 568.483L512.825 466.71Z" fill="#072247"/>
</g>
<g opacity="0.4075">
<path opacity="0.4075" d="M510.33 444.517L506.784 420.617L495.097 413.657L510.33 444.517ZM505.733 421.405L508.097 437.426L497.854 416.678L505.733 421.405Z" fill="#072247"/>
</g>
<g opacity="0.1929">
<path opacity="0.1929" d="M387.152 385.292L326.351 309.915L306.915 390.939L387.152 385.292ZM327.007 312.41L384.919 384.373L308.491 389.757L327.007 312.41Z" fill="#072247"/>
</g>
<g opacity="0.3403">
<path opacity="0.3403" d="M7.76888 258.963L3.17269 180.302L-16 217.334V269.206L7.76888 258.963ZM2.25345 184.636L6.587 258.306L-14.8181 267.498V217.466L2.25345 184.636Z" fill="#072247"/>
</g>
<g opacity="0.9176">
<path opacity="0.9176" d="M181.767 181.353L144.998 209.586L145.655 210.506L178.484 191.464L181.767 181.353ZM152.877 204.99L179.535 184.504L177.565 190.545L152.877 204.99Z" fill="#072247"/>
</g>
<g opacity="0.1984">
<path opacity="0.1984" d="M146.574 209.192L92.8641 220.617L105.865 276.559L146.574 209.192ZM94.1773 221.536L144.21 210.9L106.259 273.539L94.1773 221.536Z" fill="#072247"/>
</g>
<g opacity="0.2669">
<path opacity="0.2669" d="M107.966 275.903L45.195 219.829L6.06171 259.094L107.966 275.903ZM45.195 221.405L104.158 274.064L8.29414 258.306L45.195 221.405Z" fill="#072247"/>
</g>
<g opacity="0.7806">
<path opacity="0.7806" d="M101.925 447.8L16.3046 462.114L23.3959 522.259L24.1838 521.471L101.925 447.8ZM17.4865 463.034L98.3795 449.508L24.3151 519.895L17.4865 463.034Z" fill="#072247"/>
</g>
<g opacity="0.9353">
<path opacity="0.9353" d="M18.6684 462.508L-16 452.134V475.772L18.6684 462.508ZM-14.8181 453.71L15.1228 462.64L-14.8181 474.064V453.71Z" fill="#072247"/>
</g>
<g opacity="0.4956">
<path opacity="0.4956" d="M534.886 561.917L534.493 469.206L512.037 463.559L534.886 561.917ZM533.442 470.125L533.705 551.674L513.613 465.135L533.442 470.125Z" fill="#072247"/>
</g>
<g opacity="0.6271">
<path opacity="0.6271" d="M275.399 139.987L217.093 164.018L248.741 207.091L275.399 139.987ZM218.931 164.544L273.429 142.088L248.478 204.728L218.931 164.544Z" fill="#072247"/>
</g>
<g opacity="0.7557">
<path opacity="0.7557" d="M250.316 205.778L177.434 190.414L178.091 241.628L250.316 205.778ZM178.616 191.727L246.771 206.172L179.141 239.659L178.616 191.727Z" fill="#072247"/>
</g>
<g opacity="0.3556">
<path opacity="0.3556" d="M189.647 406.303L82.0959 355.614L99.6927 449.508L189.647 406.303ZM83.6717 357.584L187.02 406.303L100.481 447.8L83.6717 357.584Z" fill="#072247"/>
</g>
<g opacity="0.058722">
<path opacity="0.058722" d="M195.688 302.429L81.5707 320.945L82.3586 357.584L195.688 302.429ZM82.7525 321.865L188.202 304.793L83.5405 355.745L82.7525 321.865Z" fill="#072247"/>
</g>
<g opacity="0.5999">
<path opacity="0.5999" d="M309.148 390.545L256.226 357.321L279.864 396.98L309.148 390.545ZM259.64 360.867L306.127 390.02L280.257 395.666L259.64 360.867Z" fill="#072247"/>
</g>
<g opacity="0.7881">
<path opacity="0.7881" d="M308.491 391.464L295.622 330.926L256.883 359.028L308.491 391.464ZM294.834 332.896L306.784 389.1L258.852 359.028L294.834 332.896Z" fill="#072247"/>
</g>
<g opacity="0.397">
<path opacity="0.397" d="M283.146 400.394L258.327 358.503L241.781 357.452L283.146 400.394ZM257.67 359.685L277.106 392.515L244.67 358.897L257.67 359.685Z" fill="#072247"/>
</g>
<g opacity="0.1352">
<path opacity="0.1352" d="M281.571 294.419L242.175 358.766L258.327 359.685L281.571 294.419ZM244.144 357.715L276.843 304.399L257.539 358.503L244.144 357.715Z" fill="#072247"/>
</g>
<g opacity="0.5835">
<path opacity="0.5835" d="M640.599 514.511L581.242 499.015L603.435 537.361L640.599 514.511ZM583.606 500.854L637.71 514.905L603.698 535.785L583.606 500.854Z" fill="#072247"/>
</g>
<g opacity="0.7245">
<path opacity="0.7245" d="M497.198 416.152L490.763 359.422L454.65 394.222L497.198 416.152ZM489.844 361.917L495.753 414.183L456.489 393.959L489.844 361.917Z" fill="#072247"/>
</g>
<g opacity="0.6437">
<path opacity="0.6437" d="M492.339 359.554L460.297 368.483L454.65 395.798L492.339 359.554ZM461.216 369.403L488.268 361.917L456.489 392.515L461.216 369.403Z" fill="#072247"/>
</g>
<g opacity="0.4081">
<path opacity="0.4081" d="M410.001 589.888L388.465 479.317L351.039 530.926L351.433 531.32L410.001 589.888ZM387.808 482.075L408.163 586.343L352.483 530.663L387.808 482.075Z" fill="#072247"/>
</g>
<g opacity="0.2546">
<path opacity="0.2546" d="M168.11 130.663L115.976 99.9343L87.7427 179.251L168.11 130.663ZM116.502 101.641L165.747 130.663L89.7125 176.625L116.502 101.641Z" fill="#072247"/>
</g>
<g opacity="0.5939">
<path opacity="0.5939" d="M94.1773 221.93L89.1871 176.756L55.9632 208.798L94.1773 221.93ZM88.2679 179.251L92.7327 220.223L58.0643 208.273L88.2679 179.251Z" fill="#072247"/>
</g>
<g opacity="0.7674">
<path opacity="0.7674" d="M5.01116 18.91L-16 0V13.2633L5.01116 18.91ZM-14.8181 2.6264L0.67761 16.5463L-14.8181 12.4754V2.6264Z" fill="#072247"/>
</g>
<g opacity="0.2255">
<path opacity="0.2255" d="M513.481 465.003L509.673 440.053L474.479 457.912L513.481 465.003ZM508.754 441.891L512.037 463.69L477.894 457.518L508.754 441.891Z" fill="#072247"/>
</g>
<g opacity="0.1251">
<path opacity="0.1251" d="M510.067 441.234L496.541 413.789L475.136 458.963L510.067 441.234ZM496.541 416.546L508.491 440.709L477.5 456.336L496.541 416.546Z" fill="#072247"/>
</g>
<g opacity="0.2913">
<path opacity="0.2913" d="M497.198 414.97L454.519 393.04L476.055 459.357L497.198 414.97ZM456.489 395.272L495.622 415.496L476.318 456.205L456.489 395.272Z" fill="#072247"/>
</g>
<g opacity="0.7893">
<path opacity="0.7893" d="M479.863 457.387L375.858 450.296L387.808 481.418L479.863 457.387ZM377.565 451.477L472.641 458.043L388.465 479.974L377.565 451.477Z" fill="#072247"/>
</g>
<g opacity="0.769">
<path opacity="0.769" d="M583.081 500.985L579.535 443.336L532.917 469.468L583.081 500.985ZM578.353 445.305L581.636 498.884L535.018 469.731L578.353 445.305Z" fill="#072247"/>
</g>
<g opacity="0.7914">
<path opacity="0.7914" d="M579.273 443.992L530.816 399.081L528.452 402.364L578.485 444.78L579.273 443.992ZM531.078 400.788L559.049 426.658L530.159 402.101L531.078 400.788Z" fill="#072247"/>
</g>
<g opacity="0.7235">
<path opacity="0.7235" d="M474.611 358.109L452.024 337.492L460.297 369.928L474.611 358.109ZM454.125 341.037L472.772 358.109L460.954 367.958L454.125 341.037Z" fill="#072247"/>
</g>
<g opacity="0.3504">
<path opacity="0.3504" d="M219.325 164.544L165.615 129.219L185.445 174.918L219.325 164.544ZM168.242 132.239L216.699 164.15L186.233 173.473L168.242 132.239Z" fill="#072247"/>
</g>
<g opacity="0.5955">
<path opacity="0.5955" d="M186.495 174.13L167.585 130.401L166.535 130.794L180.586 184.373L186.495 174.13ZM169.424 137.886L185.182 174.13L180.848 181.484L169.424 137.886Z" fill="#072247"/>
</g>
<g opacity="0.8014">
<path opacity="0.8014" d="M83.5404 359.554L82.7524 320.158L70.9337 330.794L83.5404 359.554ZM81.5706 322.653L82.2272 353.775L72.2469 331.057L81.5706 322.653Z" fill="#072247"/>
</g>
<g opacity="0.38">
<path opacity="0.38" d="M83.4091 320.945L28.6487 313.723L71.5903 331.451L83.4091 320.945ZM37.3158 316.087L80.914 321.865L71.5903 330.269L37.3158 316.087Z" fill="#072247"/>
</g>
<g opacity="0.9285">
<path opacity="0.9285" d="M310.724 389.1L277.368 396.454L294.309 399.869L310.724 389.1ZM282.884 396.323L304.683 391.464L293.915 398.424L282.884 396.323Z" fill="#072247"/>
</g>
<g opacity="0.9356">
<path opacity="0.9356" d="M377.04 450.427L307.703 389.626L292.995 399.212L376.383 451.346L377.04 450.427ZM307.703 391.07L370.999 446.619L295.097 399.212L307.703 391.07Z" fill="#072247"/>
</g>
</g>
</svg>
