<svg width="641" height="240" viewBox="0 0 641 240" fill="none" xmlns="http://www.w3.org/2000/svg">
<g opacity="0.25">
<g opacity="0.2443">
<path opacity="0.2443" d="M256.883 70.5975L212.234 13.7361L197.657 67.8398L256.883 70.5975ZM212.759 16.3625L254.387 69.4157L199.102 66.7893L212.759 16.3625Z" fill="#072247"/>
</g>
<g opacity="0.5038">
<path opacity="0.5038" d="M114.138 150.834L22.608 160.552L23.396 161.34L90.763 235.404L114.138 150.834ZM24.9718 161.471L112.562 152.147L90.1064 233.172L24.9718 161.471Z" fill="#072247"/>
</g>
<g opacity="0.8777">
<path opacity="0.8777" d="M91.5509 234.879L23.6586 160.026L-15.7374 239.869H32.5883L91.5509 234.879ZM23.9212 162.127L89.1871 233.959L32.457 238.818H-13.8989L23.9212 162.127Z" fill="#072247"/>
</g>
<g opacity="0.6975">
<path opacity="0.6975" d="M530.29 42.4952L529.765 41.8386L489.581 -1.10303L496.016 55.8898L530.29 42.4952ZM491.026 2.31129L528.32 42.1012L496.935 54.4453L491.026 2.31129Z" fill="#072247"/>
</g>
<g opacity="0.054651">
<path opacity="0.054651" d="M199.233 67.7085L188.465 45.5154L187.94 45.778L95.3593 90.2954L199.233 67.7085ZM187.94 47.0912L197.526 66.9205L104.814 87.0124L187.94 47.0912Z" fill="#072247"/>
</g>
<g opacity="0.6378">
<path opacity="0.6378" d="M532.523 40.394L495.228 55.1019L506.39 61.7992L532.523 40.394ZM497.723 55.2332L525.957 44.2023L506.127 60.3547L497.723 55.2332Z" fill="#072247"/>
</g>
<g opacity="0.6534">
<path opacity="0.6534" d="M535.018 197.19L512.956 101.983L483.54 209.928L535.018 197.19ZM512.825 106.71L533.573 196.402L485.248 208.483L512.825 106.71Z" fill="#072247"/>
</g>
<g opacity="0.4075">
<path opacity="0.4075" d="M510.33 84.5174L506.784 60.6172L495.097 53.6573L510.33 84.5174ZM505.733 61.4051L508.097 77.4262L497.854 56.6776L505.733 61.4051Z" fill="#072247"/>
</g>
<g opacity="0.1929">
<path opacity="0.1929" d="M387.152 25.2922L326.351 -50.0854L306.915 30.9389L387.152 25.2922ZM327.007 -47.5903L384.919 24.3729L308.491 29.757L327.007 -47.5903Z" fill="#072247"/>
</g>
<g opacity="0.1666">
<path opacity="0.1666" d="M410.133 227.262L371.131 239.869H404.88L410.133 227.262ZM378.485 238.687L408.163 229.101L404.223 238.687H378.485Z" fill="#072247"/>
</g>
<g opacity="0.7806">
<path opacity="0.7806" d="M101.925 87.8004L16.3046 102.114L23.3959 162.259L24.1838 161.471L101.925 87.8004ZM17.4865 103.034L98.3795 89.5076L24.3151 159.895L17.4865 103.034Z" fill="#072247"/>
</g>
<g opacity="0.9353">
<path opacity="0.9353" d="M18.6684 102.508L-16 92.134V115.772L18.6684 102.508ZM-14.8181 93.7098L15.1228 102.64L-14.8181 114.064V93.7098Z" fill="#072247"/>
</g>
<g opacity="0.4956">
<path opacity="0.4956" d="M534.886 201.917L534.493 109.206L512.037 103.559L534.886 201.917ZM533.442 110.125L533.705 191.674L513.613 105.135L533.442 110.125Z" fill="#072247"/>
</g>
<g opacity="0.3556">
<path opacity="0.3556" d="M189.647 46.3033L82.0959 -4.38611L99.6927 89.5075L189.647 46.3033ZM83.6717 -2.41631L187.02 46.3033L100.481 87.8004L83.6717 -2.41631Z" fill="#072247"/>
</g>
<g opacity="0.5999">
<path opacity="0.5999" d="M309.148 30.545L256.226 -2.67889L279.864 36.9797L309.148 30.545ZM259.64 0.866716L306.127 30.0197L280.257 35.6665L259.64 0.866716Z" fill="#072247"/>
</g>
<g opacity="0.7881">
<path opacity="0.7881" d="M308.491 31.4642L295.622 -29.0742L256.883 -0.971792L308.491 31.4642ZM294.834 -27.1044L306.784 29.1004L258.852 -0.971792L294.834 -27.1044Z" fill="#072247"/>
</g>
<g opacity="0.397">
<path opacity="0.397" d="M283.146 40.3939L258.327 -1.49707L241.781 -2.54761L283.146 40.3939ZM257.67 -0.315195L277.106 32.5147L244.67 -1.10312L257.67 -0.315195Z" fill="#072247"/>
</g>
<g opacity="0.302">
<path opacity="0.302" d="M441.781 239.869L440.861 234.091L432.982 239.869H441.781ZM440.074 236.192L440.468 238.687H436.528L440.074 236.192Z" fill="#072247"/>
</g>
<g opacity="0.5835">
<path opacity="0.5835" d="M640.599 154.511L581.242 139.015L603.435 177.361L640.599 154.511ZM583.606 140.854L637.71 154.905L603.698 175.785L583.606 140.854Z" fill="#072247"/>
</g>
<g opacity="0.7245">
<path opacity="0.7245" d="M497.198 56.1524L490.763 -0.577759L454.65 34.222L497.198 56.1524ZM489.844 1.91731L495.753 54.1826L456.489 33.9593L489.844 1.91731Z" fill="#072247"/>
</g>
<g opacity="0.6437">
<path opacity="0.6437" d="M492.339 -0.446472L460.297 8.4833L454.65 35.7978L492.339 -0.446472ZM461.216 9.40251L488.268 1.91731L456.489 32.5148L461.216 9.40251Z" fill="#072247"/>
</g>
<g opacity="0.593">
<path opacity="0.593" d="M206.85 239.869L203.961 224.898L180.98 239.869H206.85ZM203.173 226.868L205.405 238.687H184.788L203.173 226.868Z" fill="#072247"/>
</g>
<g opacity="0.4081">
<path opacity="0.4081" d="M410.001 229.888L388.465 119.317L351.039 170.926L351.433 171.32L410.001 229.888ZM387.808 122.075L408.163 226.343L352.483 170.663L387.808 122.075Z" fill="#072247"/>
</g>
<g opacity="0.9412">
<path opacity="0.9412" d="M291.157 167.38L222.345 143.349L250.054 233.04L291.157 167.38ZM224.184 145.187L289.45 168.037L250.448 230.282L224.184 145.187Z" fill="#072247"/>
</g>
<g opacity="0.2255">
<path opacity="0.2255" d="M513.481 105.003L509.673 80.0526L474.479 97.9121L513.481 105.003ZM508.754 81.8911L512.037 103.69L477.894 97.5181L508.754 81.8911Z" fill="#072247"/>
</g>
<g opacity="0.1251">
<path opacity="0.1251" d="M510.067 81.2344L496.541 53.7886L475.136 98.9626L510.067 81.2344ZM496.541 56.5463L508.491 80.7091L477.5 96.3362L496.541 56.5463Z" fill="#072247"/>
</g>
<g opacity="0.2913">
<path opacity="0.2913" d="M497.198 54.9705L454.519 33.04L476.055 99.3565L497.198 54.9705ZM456.489 35.2725L495.622 55.4957L476.318 96.2049L456.489 35.2725Z" fill="#072247"/>
</g>
<g opacity="0.7893">
<path opacity="0.7893" d="M479.863 97.3868L375.858 90.2955L387.808 121.418L479.863 97.3868ZM377.565 91.4774L472.641 98.0434L388.465 119.974L377.565 91.4774Z" fill="#072247"/>
</g>
<g opacity="0.7612">
<path opacity="0.7612" d="M595.95 184.846L594.768 184.714L582.818 240H589.647L595.95 184.846ZM584.263 238.687L593.455 196.008L588.596 238.687H584.263Z" fill="#072247"/>
</g>
<g opacity="0.3186">
<path opacity="0.3186" d="M489.975 239.869L484.854 208.221L438.892 235.404L463.842 239.737L489.975 239.869ZM483.934 210.059L488.531 238.687H463.842L442.043 234.879L483.934 210.059Z" fill="#072247"/>
</g>
<g opacity="0.769">
<path opacity="0.769" d="M583.081 140.985L579.535 83.3356L532.917 109.468L583.081 140.985ZM578.353 85.3054L581.636 138.884L535.018 109.731L578.353 85.3054Z" fill="#072247"/>
</g>
<g opacity="0.7914">
<path opacity="0.7914" d="M579.273 83.9922L530.816 39.0808L528.452 42.3638L578.485 84.7801L579.273 83.9922ZM531.078 40.788L559.049 66.658L530.159 42.1012L531.078 40.788Z" fill="#072247"/>
</g>
<g opacity="0.7235">
<path opacity="0.7235" d="M474.611 -1.89096L452.024 -22.5082L460.297 9.92782L474.611 -1.89096ZM454.125 -18.9625L472.772 -1.89096L460.954 7.95802L454.125 -18.9625Z" fill="#072247"/>
</g>
<g opacity="0.1424">
<path opacity="0.1424" d="M141.321 201.786L89.4498 234.222L96.8037 239.737H111.774L141.321 201.786ZM91.4196 234.353L136.331 206.251L110.986 238.687H97.0664L91.4196 234.353Z" fill="#072247"/>
</g>
<g opacity="0.9285">
<path opacity="0.9285" d="M310.724 29.1005L277.368 36.4544L294.309 39.8687L310.724 29.1005ZM282.884 36.3231L304.683 31.4642L293.915 38.4242L282.884 36.3231Z" fill="#072247"/>
</g>
<g opacity="0.9356">
<path opacity="0.9356" d="M377.04 90.4268L307.703 29.6257L292.995 39.2121L376.383 91.346L377.04 90.4268ZM307.703 31.0702L370.999 86.6185L295.097 39.2121L307.703 31.0702Z" fill="#072247"/>
</g>
</g>
</svg>
