<svg width="641" height="1074" viewBox="0 0 641 1074" fill="none" xmlns="http://www.w3.org/2000/svg">
<g opacity="0.25">
<g opacity="0.2443">
<path opacity="0.2443" d="M253.883 430.598L209.234 373.736L194.657 427.84L253.883 430.598ZM209.759 376.363L251.387 429.416L196.102 426.79L209.759 376.363Z" fill="#6B6B6B"/>
</g>
<g opacity="0.5038">
<path opacity="0.5038" d="M111.138 510.834L19.6082 520.552L20.3961 521.34L87.7631 595.404L111.138 510.834ZM21.9719 521.471L109.562 512.147L87.1065 593.172L21.9719 521.471Z" fill="#6B6B6B"/>
</g>
<g opacity="0.8777">
<path opacity="0.8777" d="M88.551 594.879L20.6586 520.026L-18.7373 599.869H29.5884L88.551 594.879ZM20.9213 522.127L86.1872 593.959L29.4571 598.818H-16.8988L20.9213 522.127Z" fill="#6B6B6B"/>
</g>
<g opacity="0.5761">
<path opacity="0.5761" d="M215.274 164.806L214.749 163.756L177.192 182.535L173.909 192.384L215.274 164.806ZM178.111 183.323L207.001 168.877L176.01 189.626L178.111 183.323Z" fill="#6B6B6B"/>
</g>
<g opacity="0.1811">
<path opacity="0.1811" d="M164.585 131.845L157.1 64.478L112.188 100.854L164.585 131.845ZM156.312 66.7105L163.272 129.613L114.29 100.722L156.312 66.7105Z" fill="#6B6B6B"/>
</g>
<g opacity="0.6975">
<path opacity="0.6975" d="M527.29 402.495L526.765 401.839L486.581 358.897L493.016 415.89L527.29 402.495ZM488.026 362.311L525.32 402.101L493.935 414.445L488.026 362.311Z" fill="#6B6B6B"/>
</g>
<g opacity="0.054651">
<path opacity="0.054651" d="M196.233 427.709L185.465 405.516L184.94 405.778L92.3591 450.296L196.233 427.709ZM184.94 407.091L194.526 426.921L101.814 447.013L184.94 407.091Z" fill="#6B6B6B"/>
</g>
<g opacity="0.341">
<path opacity="0.341" d="M104.441 273.539L28.1438 315.167L79.4898 321.865L79.6212 321.471L104.441 273.539ZM31.8208 314.511L101.683 276.297L78.8332 320.683L31.8208 314.511Z" fill="#6B6B6B"/>
</g>
<g opacity="0.4395">
<path opacity="0.4395" d="M30.7702 315.299L3.84967 256.73L-8.49438 327.774L30.7702 315.299ZM4.37495 260.538L29.1944 314.511L-6.91855 326.067L4.37495 260.538Z" fill="#6B6B6B"/>
</g>
<g opacity="0.8687">
<path opacity="0.8687" d="M114.027 101.247L96.5614 47.2749L95.9048 47.6689L-2.84766 118.188L114.027 101.247ZM96.0361 49.1134L112.582 100.328L1.74854 116.349L96.0361 49.1134Z" fill="#6B6B6B"/>
</g>
<g opacity="0.6378">
<path opacity="0.6378" d="M529.523 400.394L492.228 415.102L503.39 421.799L529.523 400.394ZM494.723 415.233L522.957 404.202L503.127 420.355L494.723 415.233Z" fill="#6B6B6B"/>
</g>
<g opacity="0.6534">
<path opacity="0.6534" d="M532.018 557.19L509.956 461.983L480.54 569.928L532.018 557.19ZM509.825 466.71L530.573 556.402L482.248 568.483L509.825 466.71Z" fill="#6B6B6B"/>
</g>
<g opacity="0.4075">
<path opacity="0.4075" d="M507.33 444.517L503.784 420.617L492.097 413.657L507.33 444.517ZM502.733 421.405L505.097 437.426L494.854 416.678L502.733 421.405Z" fill="#6B6B6B"/>
</g>
<g opacity="0.1929">
<path opacity="0.1929" d="M384.152 385.292L323.351 309.915L303.915 390.939L384.152 385.292ZM324.007 312.41L381.919 384.373L305.491 389.757L324.007 312.41Z" fill="#6B6B6B"/>
</g>
<g opacity="0.1666">
<path opacity="0.1666" d="M407.133 587.262L368.131 599.869H401.88L407.133 587.262ZM375.485 598.687L405.163 589.101L401.223 598.687H375.485Z" fill="#6B6B6B"/>
</g>
<g opacity="0.3403">
<path opacity="0.3403" d="M4.76888 258.963L0.172689 180.302L-19 217.334V269.206L4.76888 258.963ZM-0.74655 184.636L3.587 258.306L-17.8181 267.499V217.466L-0.74655 184.636Z" fill="#6B6B6B"/>
</g>
<g opacity="0.9176">
<path opacity="0.9176" d="M178.767 181.353L141.998 209.586L142.655 210.506L175.484 191.464L178.767 181.353ZM149.877 204.99L176.535 184.504L174.565 190.545L149.877 204.99Z" fill="#6B6B6B"/>
</g>
<g opacity="0.1984">
<path opacity="0.1984" d="M143.574 209.192L89.864 220.617L102.865 276.559L143.574 209.192ZM91.1772 221.536L141.21 210.9L103.259 273.539L91.1772 221.536Z" fill="#6B6B6B"/>
</g>
<g opacity="0.2669">
<path opacity="0.2669" d="M104.966 275.903L42.1951 219.829L3.06177 259.094L104.966 275.903ZM42.1951 221.405L101.158 274.064L5.2942 258.306L42.1951 221.405Z" fill="#6B6B6B"/>
</g>
<g opacity="0.7806">
<path opacity="0.7806" d="M98.9252 447.8L13.3047 462.114L20.396 522.259L21.1839 521.471L98.9252 447.8ZM14.4866 463.033L95.3795 449.507L21.3152 519.895L14.4866 463.033Z" fill="#6B6B6B"/>
</g>
<g opacity="0.9353">
<path opacity="0.9353" d="M15.6684 462.508L-19 452.134V475.771L15.6684 462.508ZM-17.8181 453.71L12.1228 462.639L-17.8181 474.064V453.71Z" fill="#6B6B6B"/>
</g>
<g opacity="0.4956">
<path opacity="0.4956" d="M531.886 561.917L531.493 469.205L509.037 463.559L531.886 561.917ZM530.442 470.125L530.705 551.674L510.613 465.134L530.442 470.125Z" fill="#6B6B6B"/>
</g>
<g opacity="0.6271">
<path opacity="0.6271" d="M272.399 139.987L214.093 164.018L245.741 207.091L272.399 139.987ZM215.931 164.544L270.429 142.088L245.478 204.727L215.931 164.544Z" fill="#6B6B6B"/>
</g>
<g opacity="0.7557">
<path opacity="0.7557" d="M247.316 205.778L174.434 190.414L175.091 241.628L247.316 205.778ZM175.616 191.727L243.771 206.172L176.141 239.658L175.616 191.727Z" fill="#6B6B6B"/>
</g>
<g opacity="0.3556">
<path opacity="0.3556" d="M186.647 406.303L79.0959 355.614L96.6928 449.507L186.647 406.303ZM80.6718 357.584L184.02 406.303L97.4807 447.8L80.6718 357.584Z" fill="#6B6B6B"/>
</g>
<g opacity="0.058722">
<path opacity="0.058722" d="M192.687 302.429L78.5706 320.945L79.3585 357.583L192.687 302.429ZM79.7524 321.865L185.202 304.793L80.5404 355.745L79.7524 321.865Z" fill="#6B6B6B"/>
</g>
<g opacity="0.5999">
<path opacity="0.5999" d="M306.148 390.545L253.226 357.321L276.864 396.98L306.148 390.545ZM256.64 360.867L303.127 390.02L277.257 395.667L256.64 360.867Z" fill="#6B6B6B"/>
</g>
<g opacity="0.7881">
<path opacity="0.7881" d="M305.491 391.464L292.622 330.926L253.883 359.028L305.491 391.464ZM291.834 332.896L303.784 389.1L255.852 359.028L291.834 332.896Z" fill="#6B6B6B"/>
</g>
<g opacity="0.397">
<path opacity="0.397" d="M280.146 400.394L255.327 358.503L238.781 357.452L280.146 400.394ZM254.67 359.685L274.106 392.515L241.67 358.897L254.67 359.685Z" fill="#6B6B6B"/>
</g>
<g opacity="0.1352">
<path opacity="0.1352" d="M278.571 294.419L239.175 358.766L255.327 359.685L278.571 294.419ZM241.144 357.715L273.843 304.399L254.539 358.503L241.144 357.715Z" fill="#6B6B6B"/>
</g>
<g opacity="0.302">
<path opacity="0.302" d="M438.781 599.869L437.861 594.091L429.982 599.869H438.781ZM437.074 596.192L437.468 598.687H433.528L437.074 596.192Z" fill="#6B6B6B"/>
</g>
<g opacity="0.5835">
<path opacity="0.5835" d="M637.599 514.511L578.242 499.015L600.435 537.361L637.599 514.511ZM580.606 500.854L634.71 514.905L600.698 535.785L580.606 500.854Z" fill="#6B6B6B"/>
</g>
<g opacity="0.7245">
<path opacity="0.7245" d="M494.198 416.152L487.763 359.422L451.65 394.222L494.198 416.152ZM486.844 361.917L492.753 414.183L453.489 393.959L486.844 361.917Z" fill="#6B6B6B"/>
</g>
<g opacity="0.6437">
<path opacity="0.6437" d="M489.339 359.554L457.297 368.483L451.65 395.798L489.339 359.554ZM458.216 369.403L485.268 361.917L453.489 392.515L458.216 369.403Z" fill="#6B6B6B"/>
</g>
<g opacity="0.593">
<path opacity="0.593" d="M203.85 599.869L200.961 584.898L177.98 599.869H203.85ZM200.173 586.868L202.405 598.687H181.788L200.173 586.868Z" fill="#6B6B6B"/>
</g>
<g opacity="0.4081">
<path opacity="0.4081" d="M407.001 589.889L385.465 479.317L348.039 530.926L348.433 531.32L407.001 589.889ZM384.808 482.075L405.163 586.343L349.483 530.663L384.808 482.075Z" fill="#6B6B6B"/>
</g>
<g opacity="0.9412">
<path opacity="0.9412" d="M288.157 527.38L219.345 503.349L247.054 593.04L288.157 527.38ZM221.184 505.187L286.45 528.037L247.448 590.282L221.184 505.187Z" fill="#6B6B6B"/>
</g>
<g opacity="0.2546">
<path opacity="0.2546" d="M165.11 130.663L112.976 99.9346L84.7427 179.252L165.11 130.663ZM113.502 101.642L162.747 130.663L86.7125 176.625L113.502 101.642Z" fill="#6B6B6B"/>
</g>
<g opacity="0.5939">
<path opacity="0.5939" d="M91.1772 221.93L86.187 176.756L52.9631 208.798L91.1772 221.93ZM85.2678 179.251L89.7327 220.223L55.0643 208.273L85.2678 179.251Z" fill="#6B6B6B"/>
</g>
<g opacity="0.7674">
<path opacity="0.7674" d="M2.01116 18.91L-19 0V13.2633L2.01116 18.91ZM-17.8181 2.6264L-2.32239 16.5463L-17.8181 12.4754V2.6264Z" fill="#6B6B6B"/>
</g>
<g opacity="0.2255">
<path opacity="0.2255" d="M510.481 465.003L506.673 440.053L471.479 457.912L510.481 465.003ZM505.754 441.891L509.037 463.69L474.894 457.518L505.754 441.891Z" fill="#6B6B6B"/>
</g>
<g opacity="0.1251">
<path opacity="0.1251" d="M507.067 441.234L493.541 413.789L472.136 458.963L507.067 441.234ZM493.541 416.546L505.491 440.709L474.5 456.336L493.541 416.546Z" fill="#6B6B6B"/>
</g>
<g opacity="0.2913">
<path opacity="0.2913" d="M494.198 414.97L451.519 393.04L473.055 459.357L494.198 414.97ZM453.488 395.272L492.622 415.496L473.318 456.205L453.488 395.272Z" fill="#6B6B6B"/>
</g>
<g opacity="0.7893">
<path opacity="0.7893" d="M476.863 457.387L372.858 450.295L384.808 481.418L476.863 457.387ZM374.565 451.477L469.641 458.043L385.465 479.974L374.565 451.477Z" fill="#6B6B6B"/>
</g>
<g opacity="0.7612">
<path opacity="0.7612" d="M592.95 544.846L591.768 544.714L579.818 600H586.647L592.95 544.846ZM581.263 598.687L590.455 556.008L585.596 598.687H581.263Z" fill="#6B6B6B"/>
</g>
<g opacity="0.3186">
<path opacity="0.3186" d="M486.975 599.869L481.854 568.221L435.892 595.404L460.842 599.737L486.975 599.869ZM480.934 570.059L485.531 598.687H460.842L439.043 594.879L480.934 570.059Z" fill="#6B6B6B"/>
</g>
<g opacity="0.769">
<path opacity="0.769" d="M580.081 500.985L576.535 443.335L529.917 469.468L580.081 500.985ZM575.353 445.305L578.636 498.884L532.018 469.731L575.353 445.305Z" fill="#6B6B6B"/>
</g>
<g opacity="0.7914">
<path opacity="0.7914" d="M576.273 443.992L527.816 399.081L525.452 402.364L575.485 444.78L576.273 443.992ZM528.078 400.788L556.049 426.658L527.159 402.101L528.078 400.788Z" fill="#6B6B6B"/>
</g>
<g opacity="0.7235">
<path opacity="0.7235" d="M471.611 358.109L449.024 337.492L457.297 369.928L471.611 358.109ZM451.125 341.037L469.772 358.109L457.953 367.958L451.125 341.037Z" fill="#6B6B6B"/>
</g>
<g opacity="0.1424">
<path opacity="0.1424" d="M138.321 561.786L86.45 594.222L93.8039 599.738H108.774L138.321 561.786ZM88.4197 594.353L133.331 566.251L107.986 598.687H94.0665L88.4197 594.353Z" fill="#6B6B6B"/>
</g>
<g opacity="0.3504">
<path opacity="0.3504" d="M216.325 164.544L162.615 129.219L182.445 174.918L216.325 164.544ZM165.242 132.239L213.699 164.15L183.233 173.474L165.242 132.239Z" fill="#6B6B6B"/>
</g>
<g opacity="0.5955">
<path opacity="0.5955" d="M183.495 174.13L164.585 130.4L163.535 130.794L177.586 184.373L183.495 174.13ZM166.424 137.886L182.182 174.13L177.848 181.484L166.424 137.886Z" fill="#6B6B6B"/>
</g>
<g opacity="0.8014">
<path opacity="0.8014" d="M80.5403 359.554L79.7524 320.158L67.9336 330.795L80.5403 359.554ZM78.5705 322.653L79.2271 353.776L69.2468 331.057L78.5705 322.653Z" fill="#6B6B6B"/>
</g>
<g opacity="0.38">
<path opacity="0.38" d="M80.409 320.945L25.6487 313.723L68.5902 331.451L80.409 320.945ZM34.3158 316.086L77.914 321.864L68.5902 330.269L34.3158 316.086Z" fill="#6B6B6B"/>
</g>
<g opacity="0.9285">
<path opacity="0.9285" d="M307.724 389.101L274.368 396.455L291.309 399.869L307.724 389.101ZM279.884 396.323L301.683 391.464L290.915 398.424L279.884 396.323Z" fill="#6B6B6B"/>
</g>
<g opacity="0.9356">
<path opacity="0.9356" d="M374.04 450.427L304.703 389.626L289.995 399.212L373.383 451.346L374.04 450.427ZM304.703 391.07L367.999 446.619L292.096 399.212L304.703 391.07Z" fill="#6B6B6B"/>
</g>
</g>
<g opacity="0.25">
<g opacity="0.5761">
<path opacity="0.5761" d="M218.274 922.806L217.749 921.756L180.192 940.535L176.909 950.384L218.274 922.806ZM181.111 941.323L210.001 926.877L179.01 947.626L181.111 941.323Z" fill="#6B6B6B"/>
</g>
<g opacity="0.1811">
<path opacity="0.1811" d="M167.585 889.845L160.1 822.478L115.188 858.854L167.585 889.845ZM159.312 824.71L166.272 887.613L117.29 858.722L159.312 824.71Z" fill="#6B6B6B"/>
</g>
<g opacity="0.341">
<path opacity="0.341" d="M107.441 1031.54L31.1438 1073.17L82.4898 1079.86L82.6212 1079.47L107.441 1031.54ZM34.8208 1072.51L104.683 1034.3L81.8332 1078.68L34.8208 1072.51Z" fill="#6B6B6B"/>
</g>
<g opacity="0.4395">
<path opacity="0.4395" d="M33.7702 1073.3L6.84967 1014.73L-5.49438 1085.77L33.7702 1073.3ZM7.37495 1018.54L32.1944 1072.51L-3.91855 1084.07L7.37495 1018.54Z" fill="#6B6B6B"/>
</g>
<g opacity="0.8687">
<path opacity="0.8687" d="M117.027 859.247L99.5614 805.275L98.9048 805.669L0.152344 876.188L117.027 859.247ZM99.0361 807.113L115.582 858.328L4.74854 874.349L99.0361 807.113Z" fill="#6B6B6B"/>
</g>
<g opacity="0.1929">
<path opacity="0.1929" d="M387.152 1143.29L326.351 1067.91L306.915 1148.94L387.152 1143.29ZM327.007 1070.41L384.919 1142.37L308.491 1147.76L327.007 1070.41Z" fill="#6B6B6B"/>
</g>
<g opacity="0.3403">
<path opacity="0.3403" d="M7.76888 1016.96L3.17269 938.302L-16 975.334V1027.21L7.76888 1016.96ZM2.25345 942.636L6.587 1016.31L-14.8181 1025.5V975.466L2.25345 942.636Z" fill="#6B6B6B"/>
</g>
<g opacity="0.9176">
<path opacity="0.9176" d="M181.767 939.353L144.998 967.586L145.655 968.506L178.484 949.464L181.767 939.353ZM152.877 962.99L179.535 942.504L177.565 948.545L152.877 962.99Z" fill="#6B6B6B"/>
</g>
<g opacity="0.1984">
<path opacity="0.1984" d="M146.574 967.192L92.864 978.617L105.865 1034.56L146.574 967.192ZM94.1772 979.536L144.21 968.9L106.259 1031.54L94.1772 979.536Z" fill="#6B6B6B"/>
</g>
<g opacity="0.2669">
<path opacity="0.2669" d="M107.966 1033.9L45.1951 977.829L6.06177 1017.09L107.966 1033.9ZM45.1951 979.405L104.158 1032.06L8.2942 1016.31L45.1951 979.405Z" fill="#6B6B6B"/>
</g>
<g opacity="0.6271">
<path opacity="0.6271" d="M275.399 897.987L217.093 922.018L248.741 965.091L275.399 897.987ZM218.931 922.544L273.429 900.088L248.478 962.727L218.931 922.544Z" fill="#6B6B6B"/>
</g>
<g opacity="0.7557">
<path opacity="0.7557" d="M250.316 963.778L177.434 948.414L178.091 999.628L250.316 963.778ZM178.616 949.727L246.771 964.172L179.141 997.658L178.616 949.727Z" fill="#6B6B6B"/>
</g>
<g opacity="0.058722">
<path opacity="0.058722" d="M195.687 1060.43L81.5706 1078.95L82.3585 1115.58L195.687 1060.43ZM82.7524 1079.86L188.202 1062.79L83.5404 1113.75L82.7524 1079.86Z" fill="#6B6B6B"/>
</g>
<g opacity="0.1352">
<path opacity="0.1352" d="M281.571 1052.42L242.175 1116.77L258.327 1117.68L281.571 1052.42ZM244.144 1115.72L276.843 1062.4L257.539 1116.5L244.144 1115.72Z" fill="#6B6B6B"/>
</g>
<g opacity="0.2546">
<path opacity="0.2546" d="M168.11 888.663L115.976 857.935L87.7427 937.252L168.11 888.663ZM116.502 859.642L165.747 888.663L89.7125 934.625L116.502 859.642Z" fill="#6B6B6B"/>
</g>
<g opacity="0.5939">
<path opacity="0.5939" d="M94.1772 979.93L89.187 934.756L55.9631 966.798L94.1772 979.93ZM88.2678 937.251L92.7327 978.223L58.0643 966.273L88.2678 937.251Z" fill="#6B6B6B"/>
</g>
<g opacity="0.7674">
<path opacity="0.7674" d="M5.01116 776.91L-16 758V771.263L5.01116 776.91ZM-14.8181 760.626L0.67761 774.546L-14.8181 770.475V760.626Z" fill="#6B6B6B"/>
</g>
<g opacity="0.3504">
<path opacity="0.3504" d="M219.325 922.544L165.615 887.219L185.445 932.918L219.325 922.544ZM168.242 890.239L216.699 922.15L186.233 931.474L168.242 890.239Z" fill="#6B6B6B"/>
</g>
<g opacity="0.5955">
<path opacity="0.5955" d="M186.495 932.13L167.585 888.4L166.535 888.794L180.586 942.373L186.495 932.13ZM169.424 895.886L185.182 932.13L180.848 939.484L169.424 895.886Z" fill="#6B6B6B"/>
</g>
<g opacity="0.38">
<path opacity="0.38" d="M83.409 1078.95L28.6487 1071.72L71.5902 1089.45L83.409 1078.95ZM37.3158 1074.09L80.914 1079.86L71.5902 1088.27L37.3158 1074.09Z" fill="#6B6B6B"/>
</g>
</g>
</svg>
