<svg width="121" height="32" viewBox="0 0 121 32" fill="none" xmlns="http://www.w3.org/2000/svg">
<rect x="0.768293" y="0.768293" width="119.263" height="30.4634" rx="15.2317" fill="white"/>
<path d="M60.2657 16.9955C58.6863 16.9955 57.3991 18.1968 57.3991 19.8514C57.3991 21.4959 58.6863 22.7074 60.2657 22.7074C61.8458 22.7074 63.1331 21.4959 63.1331 19.8514C63.1324 18.1968 61.8451 16.9955 60.2657 16.9955ZM60.2657 21.5832C59.4002 21.5832 58.6541 20.8694 58.6541 19.8521C58.6541 18.824 59.4008 18.1209 60.2657 18.1209C61.1313 18.1209 61.8774 18.824 61.8774 19.8521C61.8774 20.8688 61.1313 21.5832 60.2657 21.5832ZM54.0113 16.9955C52.4319 16.9955 51.1446 18.1968 51.1446 19.8514C51.1446 21.4959 52.4319 22.7074 54.0113 22.7074C55.5913 22.7074 56.8786 21.4959 56.8786 19.8514C56.8786 18.1968 55.5913 16.9955 54.0113 16.9955ZM54.0113 21.5832C53.1457 21.5832 52.3996 20.8694 52.3996 19.8521C52.3996 18.824 53.1464 18.1209 54.0113 18.1209C54.8769 18.1209 55.6229 18.824 55.6229 19.8521C55.6236 20.8688 54.8769 21.5832 54.0113 21.5832ZM46.5723 17.8725V19.0839H49.4719C49.3852 19.7655 49.1583 20.263 48.8118 20.6089C48.39 21.0306 47.7299 21.4959 46.5723 21.4959C44.7874 21.4959 43.392 20.0569 43.392 18.272C43.392 16.4871 44.7874 15.0481 46.5723 15.0481C47.5352 15.0481 48.2383 15.4268 48.7574 15.9137L49.6122 15.0588C48.887 14.3665 47.9247 13.8367 46.5723 13.8367C44.1273 13.8367 42.0718 15.827 42.0718 18.272C42.0718 20.717 44.1273 22.7074 46.5723 22.7074C47.8918 22.7074 48.8876 22.2742 49.6659 21.463C50.4664 20.6626 50.7155 19.5371 50.7155 18.6286C50.7155 18.3479 50.694 18.088 50.6504 17.8718H46.5723V17.8725ZM76.9972 18.8132C76.7594 18.1753 76.0342 16.9955 74.5522 16.9955C73.0809 16.9955 71.8581 18.1532 71.8581 19.8514C71.8581 21.4523 73.0701 22.7074 74.6925 22.7074C76.0013 22.7074 76.7588 21.9069 77.073 21.4416L76.0993 20.7922C75.775 21.2683 75.3311 21.5819 74.6925 21.5819C74.0546 21.5819 73.6 21.2898 73.3079 20.7163L77.1268 19.1369L76.9972 18.8132ZM73.1024 19.7655C73.0701 18.6615 73.9572 18.0994 74.5958 18.0994C75.0934 18.0994 75.5151 18.3486 75.6561 18.7051L73.1024 19.7655ZM69.998 22.5348H71.2524V14.1402H69.998V22.5348ZM67.9418 17.6341H67.8988C67.6175 17.2983 67.0762 16.9955 66.3953 16.9955C64.967 16.9955 63.6582 18.2505 63.6582 19.8628C63.6582 21.4637 64.967 22.708 66.3953 22.708C67.0769 22.708 67.6175 22.4052 67.8988 22.0593H67.9418V22.4703C67.9418 23.5629 67.3576 24.1471 66.4168 24.1471C65.6486 24.1471 65.1725 23.5958 64.9777 23.1304L63.8852 23.585C64.1988 24.3418 65.0315 25.2725 66.4168 25.2725C67.8881 25.2725 69.1324 24.4069 69.1324 22.2971V17.1694H67.9425V17.6341H67.9418ZM66.5034 21.5832C65.6378 21.5832 64.9133 20.858 64.9133 19.8628C64.9133 18.8562 65.6378 18.1209 66.5034 18.1209C67.3576 18.1209 68.0284 18.8562 68.0284 19.8628C68.0284 20.858 67.3576 21.5832 66.5034 21.5832ZM82.8756 14.1402H79.8732V22.5348H81.1256V19.3545H82.8749C84.2636 19.3545 85.6294 18.3492 85.6294 16.7477C85.6294 15.1461 84.2643 14.1402 82.8756 14.1402ZM82.9078 18.1861H81.1256V15.3086H82.9078C83.8446 15.3086 84.3764 16.0842 84.3764 16.7477C84.3764 17.3977 83.8446 18.1861 82.9078 18.1861ZM90.6517 16.9807C89.7445 16.9807 88.805 17.3802 88.4162 18.266L89.5282 18.73C89.766 18.266 90.2092 18.1142 90.6732 18.1142C91.3212 18.1142 91.9799 18.503 91.9907 19.194V19.2806C91.7637 19.151 91.2775 18.957 90.6839 18.957C89.4853 18.957 88.2645 19.6157 88.2645 20.8466C88.2645 21.97 89.2476 22.6932 90.3488 22.6932C91.1909 22.6932 91.6556 22.3152 91.947 21.872H91.99V22.52H93.2001V19.3014C93.2007 17.812 92.0874 16.9807 90.6517 16.9807ZM90.4999 21.5812C90.0903 21.5812 89.5175 21.3757 89.5175 20.8681C89.5175 20.2201 90.2307 19.9716 90.8464 19.9716C91.3964 19.9716 91.6563 20.0905 91.9907 20.2523C91.8933 21.0306 91.2238 21.5812 90.4999 21.5812ZM97.6065 17.164L96.1702 20.8036H96.1272L94.6364 17.164H93.2867L95.5222 22.2507L94.2476 25.0805H95.5544L98.9999 17.164H97.6065ZM86.3211 22.5348H87.5735V14.1402H86.3211V22.5348Z" fill="#1A1369"/>
<path d="M46.3534 9.26834C46.3534 9.83107 46.1868 10.279 45.8531 10.6134C45.4744 11.0109 44.9801 11.2097 44.3731 11.2097C43.7916 11.2097 43.2966 11.0082 42.8904 10.6053C42.4834 10.2017 42.28 9.70213 42.28 9.10583C42.28 8.50886 42.4834 8.00925 42.8904 7.60634C43.2966 7.20277 43.7916 7.00131 44.3731 7.00131C44.6618 7.00131 44.9378 7.05772 45.1997 7.16986C45.4623 7.28268 45.6725 7.43242 45.8296 7.61977L45.4757 7.97433C45.2091 7.65536 44.8418 7.49622 44.3724 7.49622C43.948 7.49622 43.5814 7.64529 43.2718 7.94344C42.9622 8.2416 42.8078 8.62906 42.8078 9.10516C42.8078 9.58126 42.9622 9.96873 43.2718 10.2669C43.5814 10.565 43.948 10.7141 44.3724 10.7141C44.8223 10.7141 45.1977 10.5644 45.4979 10.2642C45.6926 10.0688 45.8054 9.79682 45.8356 9.4483H44.3724V8.96414H46.3245C46.3446 9.06957 46.3534 9.17097 46.3534 9.26834Z" fill="#1A1369"/>
<path d="M49.4491 7.58557H47.6145V8.86278H49.2691V9.34694H47.6145V10.6242H49.4491V11.1197H47.0968V7.09066H49.4491V7.58557Z" fill="#1A1369"/>
<path d="M51.6321 11.1197H51.1144V7.58557H49.9889V7.09066H52.7576V7.58557H51.6321V11.1197Z" fill="#1A1369"/>
<path d="M54.7607 11.1197V7.09066H55.2784V11.1197H54.7607Z" fill="#1A1369"/>
<path d="M57.5744 11.1197H57.0567V7.58557H55.9312V7.09066H58.6999V7.58557H57.5744V11.1197Z" fill="#1A1369"/>
<path d="M63.9409 10.5993C63.5447 11.0062 63.0525 11.2097 62.4635 11.2097C61.8746 11.2097 61.3824 11.0062 60.9869 10.5993C60.5907 10.1924 60.3933 9.69411 60.3933 9.10519C60.3933 8.51628 60.5907 8.01801 60.9869 7.61108C61.3824 7.20414 61.8746 7 62.4635 7C63.0491 7 63.5407 7.20481 63.9382 7.61376C64.3357 8.02271 64.5345 8.51963 64.5345 9.10519C64.5345 9.69411 64.3364 10.1924 63.9409 10.5993ZM61.369 10.2615C61.6671 10.5637 62.0318 10.7141 62.4635 10.7141C62.8953 10.7141 63.2606 10.563 63.5581 10.2615C63.8563 9.95936 64.006 9.57391 64.006 9.10519C64.006 8.63648 63.8563 8.25103 63.5581 7.94885C63.2606 7.64667 62.8953 7.49625 62.4635 7.49625C62.0318 7.49625 61.6671 7.64734 61.369 7.94885C61.0715 8.25103 60.9218 8.63648 60.9218 9.10519C60.9218 9.57391 61.0715 9.95936 61.369 10.2615Z" fill="#1A1369"/>
<path d="M65.2611 11.1197V7.09066H65.891L67.8491 10.2246H67.8712L67.8491 9.44834V7.09066H68.3668V11.1197H67.8263L65.7775 7.83335H65.7553L65.7775 8.60962V11.1197H65.2611Z" fill="#1A1369"/>
<path d="M46.3534 9.26834C46.3534 9.83107 46.1868 10.279 45.8531 10.6134C45.4744 11.0109 44.9801 11.2097 44.3731 11.2097C43.7916 11.2097 43.2966 11.0082 42.8904 10.6053C42.4834 10.2017 42.28 9.70213 42.28 9.10583C42.28 8.50886 42.4834 8.00925 42.8904 7.60634C43.2966 7.20277 43.7916 7.00131 44.3731 7.00131C44.6618 7.00131 44.9378 7.05772 45.1997 7.16986C45.4623 7.28268 45.6725 7.43242 45.8296 7.61977L45.4757 7.97433C45.2091 7.65536 44.8418 7.49622 44.3724 7.49622C43.948 7.49622 43.5814 7.64529 43.2718 7.94344C42.9622 8.2416 42.8078 8.62906 42.8078 9.10516C42.8078 9.58126 42.9622 9.96873 43.2718 10.2669C43.5814 10.565 43.948 10.7141 44.3724 10.7141C44.8223 10.7141 45.1977 10.5644 45.4979 10.2642C45.6926 10.0688 45.8054 9.79682 45.8356 9.4483H44.3724V8.96414H46.3245C46.3446 9.06957 46.3534 9.17097 46.3534 9.26834Z" stroke="#1A1369" stroke-width="0.307317" stroke-miterlimit="10"/>
<path d="M49.4491 7.58557H47.6145V8.86278H49.2691V9.34694H47.6145V10.6242H49.4491V11.1197H47.0968V7.09066H49.4491V7.58557Z" stroke="#1A1369" stroke-width="0.307317" stroke-miterlimit="10"/>
<path d="M51.6321 11.1197H51.1144V7.58557H49.9889V7.09066H52.7576V7.58557H51.6321V11.1197Z" stroke="#1A1369" stroke-width="0.307317" stroke-miterlimit="10"/>
<path d="M54.7607 11.1197V7.09066H55.2784V11.1197H54.7607Z" stroke="#1A1369" stroke-width="0.307317" stroke-miterlimit="10"/>
<path d="M57.5744 11.1197H57.0567V7.58557H55.9312V7.09066H58.6999V7.58557H57.5744V11.1197Z" stroke="#1A1369" stroke-width="0.307317" stroke-miterlimit="10"/>
<path d="M63.9409 10.5993C63.5447 11.0062 63.0525 11.2097 62.4635 11.2097C61.8746 11.2097 61.3824 11.0062 60.9869 10.5993C60.5907 10.1924 60.3933 9.69411 60.3933 9.10519C60.3933 8.51628 60.5907 8.01801 60.9869 7.61108C61.3824 7.20414 61.8746 7 62.4635 7C63.0491 7 63.5407 7.20481 63.9382 7.61376C64.3357 8.02271 64.5345 8.51963 64.5345 9.10519C64.5345 9.69411 64.3364 10.1924 63.9409 10.5993ZM61.369 10.2615C61.6671 10.5637 62.0318 10.7141 62.4635 10.7141C62.8953 10.7141 63.2606 10.563 63.5581 10.2615C63.8563 9.95936 64.006 9.57391 64.006 9.10519C64.006 8.63648 63.8563 8.25103 63.5581 7.94885C63.2606 7.64667 62.8953 7.49625 62.4635 7.49625C62.0318 7.49625 61.6671 7.64734 61.369 7.94885C61.0715 8.25103 60.9218 8.63648 60.9218 9.10519C60.9218 9.57391 61.0715 9.95936 61.369 10.2615Z" stroke="#1A1369" stroke-width="0.307317" stroke-miterlimit="10"/>
<path d="M65.2611 11.1197V7.09066H65.891L67.8491 10.2246H67.8712L67.8491 9.44834V7.09066H68.3668V11.1197H67.8263L65.7775 7.83335H65.7553L65.7775 8.60962V11.1197H65.2611Z" stroke="#1A1369" stroke-width="0.307317" stroke-miterlimit="10"/>
<g filter="url(#filter0_ii)">
<path d="M25.2635 9.37357C25.0979 9.54883 25 9.82083 25 10.1731V22.7579C25 23.1107 25.0979 23.3821 25.2635 23.5574L25.3056 23.5983L32.3554 16.5485V16.4655V16.3824L25.3056 9.33203L25.2635 9.37357Z" fill="url(#paint0_linear)"/>
<path d="M34.7049 18.8997L32.3554 16.549V16.4659V16.3828L34.7055 14.0327L34.7584 14.0629L37.5427 15.6448C38.3376 16.0966 38.3376 16.8358 37.5427 17.2882L34.7584 18.8701L34.7049 18.8997Z" fill="url(#paint1_linear)"/>
<g filter="url(#filter1_i)">
<path d="M34.7583 18.8692L32.3547 16.4656L25.2634 23.5575C25.5252 23.8352 25.9582 23.8693 26.4459 23.5928L34.7583 18.8692Z" fill="url(#paint2_linear)"/>
</g>
<path d="M34.7583 14.0619L26.4459 9.33894C25.9582 9.06182 25.5252 9.09653 25.2634 9.37422L32.3553 16.4661L34.7583 14.0619Z" fill="url(#paint3_linear)"/>
</g>
<rect x="0.768293" y="0.768293" width="119.263" height="30.4634" rx="15.2317" stroke="#E8E8E8" stroke-width="1.53659"/>
<defs>
<filter id="filter0_ii" x="25" y="9.14771" width="13.1389" height="14.6361" filterUnits="userSpaceOnUse" color-interpolation-filters="sRGB">
<feFlood flood-opacity="0" result="BackgroundImageFix"/>
<feBlend mode="normal" in="SourceGraphic" in2="BackgroundImageFix" result="shape"/>
<feColorMatrix in="SourceAlpha" type="matrix" values="0 0 0 0 0 0 0 0 0 0 0 0 0 0 0 0 0 0 127 0" result="hardAlpha"/>
<feOffset dy="-0.195314"/>
<feComposite in2="hardAlpha" operator="arithmetic" k2="-1" k3="1"/>
<feColorMatrix type="matrix" values="0 0 0 0 0 0 0 0 0 0 0 0 0 0 0 0 0 0 0.12 0"/>
<feBlend mode="normal" in2="shape" result="effect1_innerShadow"/>
<feColorMatrix in="SourceAlpha" type="matrix" values="0 0 0 0 0 0 0 0 0 0 0 0 0 0 0 0 0 0 127 0" result="hardAlpha"/>
<feOffset dy="0.195314"/>
<feComposite in2="hardAlpha" operator="arithmetic" k2="-1" k3="1"/>
<feColorMatrix type="matrix" values="0 0 0 0 1 0 0 0 0 1 0 0 0 0 1 0 0 0 0.25 0"/>
<feBlend mode="normal" in2="effect1_innerShadow" result="effect2_innerShadow"/>
</filter>
<filter id="filter1_i" x="25.2634" y="16.4656" width="9.49494" height="7.31819" filterUnits="userSpaceOnUse" color-interpolation-filters="sRGB">
<feFlood flood-opacity="0" result="BackgroundImageFix"/>
<feBlend mode="normal" in="SourceGraphic" in2="BackgroundImageFix" result="shape"/>
<feColorMatrix in="SourceAlpha" type="matrix" values="0 0 0 0 0 0 0 0 0 0 0 0 0 0 0 0 0 0 127 0" result="hardAlpha"/>
<feOffset dy="-0.195314"/>
<feComposite in2="hardAlpha" operator="arithmetic" k2="-1" k3="1"/>
<feColorMatrix type="matrix" values="0 0 0 0 0 0 0 0 0 0 0 0 0 0 0 0 0 0 0.08 0"/>
<feBlend mode="normal" in2="shape" result="effect1_innerShadow"/>
</filter>
<linearGradient id="paint0_linear" x1="31.7304" y1="10.0399" x2="22.1809" y2="19.5895" gradientUnits="userSpaceOnUse">
<stop stop-color="#00A0FF"/>
<stop offset="0.0066" stop-color="#00A1FF"/>
<stop offset="0.2601" stop-color="#00BEFF"/>
<stop offset="0.5122" stop-color="#00D2FF"/>
<stop offset="0.7604" stop-color="#00DFFF"/>
<stop offset="1" stop-color="#00E3FF"/>
</linearGradient>
<linearGradient id="paint1_linear" x1="38.5775" y1="16.4659" x2="24.8091" y2="16.4659" gradientUnits="userSpaceOnUse">
<stop stop-color="#FFE000"/>
<stop offset="0.4087" stop-color="#FFBD00"/>
<stop offset="0.7754" stop-color="#FFA500"/>
<stop offset="1" stop-color="#FF9C00"/>
</linearGradient>
<linearGradient id="paint2_linear" x1="33.453" y1="17.7709" x2="20.5026" y2="30.7213" gradientUnits="userSpaceOnUse">
<stop stop-color="#FF3A44"/>
<stop offset="1" stop-color="#C31162"/>
</linearGradient>
<linearGradient id="paint3_linear" x1="23.4774" y1="5.18487" x2="29.2601" y2="10.9676" gradientUnits="userSpaceOnUse">
<stop stop-color="#32A071"/>
<stop offset="0.0685" stop-color="#2DA771"/>
<stop offset="0.4762" stop-color="#15CF74"/>
<stop offset="0.8009" stop-color="#06E775"/>
<stop offset="1" stop-color="#00F076"/>
</linearGradient>
</defs>
</svg>
