<svg width="118" height="32" viewBox="0 0 118 32" fill="none" xmlns="http://www.w3.org/2000/svg">
<rect x="0.768293" y="0.768293" width="116.063" height="30.4634" rx="15.2317" fill="white"/>
<path d="M74.7483 14.7993V16.4562H73.7098V17.5427H74.7483V21.2347C74.7483 22.4953 75.3186 22.9996 76.7534 22.9996C77.0055 22.9996 77.2457 22.9696 77.4558 22.9336V21.859C77.2757 21.877 77.1616 21.889 76.9635 21.889C76.3212 21.889 76.039 21.5889 76.039 20.9045V17.5427H77.4558V16.4562H76.039V14.7993H74.7483Z" fill="#1A1369"/>
<path d="M81.1107 23.0896C83.0197 23.0896 84.1903 21.811 84.1903 19.6919C84.1903 17.5848 83.0137 16.3001 81.1107 16.3001C79.2017 16.3001 78.0251 17.5848 78.0251 19.6919C78.0251 21.811 79.1957 23.0896 81.1107 23.0896ZM81.1107 21.943C79.9881 21.943 79.3578 21.1206 79.3578 19.6919C79.3578 18.2751 79.9881 17.4467 81.1107 17.4467C82.2273 17.4467 82.8636 18.2751 82.8636 19.6919C82.8636 21.1146 82.2273 21.943 81.1107 21.943Z" fill="#1A1369"/>
<path d="M85.1919 22.9636H86.4826V19.1036C86.4826 18.1851 87.1729 17.5667 88.1515 17.5667C88.3796 17.5667 88.7638 17.6088 88.8718 17.6448V16.3721C88.7338 16.3361 88.4876 16.3181 88.2955 16.3181C87.4431 16.3181 86.7167 16.7863 86.5306 17.4287H86.4346V16.4262H85.1919V22.9636Z" fill="#1A1369"/>
<path d="M92.0766 17.3987C93.0311 17.3987 93.6554 18.065 93.6854 19.0916H90.3837C90.4557 18.071 91.1221 17.3987 92.0766 17.3987ZM93.6794 21.1987C93.4393 21.7089 92.905 21.9911 92.1246 21.9911C91.092 21.9911 90.4257 21.2647 90.3837 20.1181V20.0461H95.0001V19.5958C95.0001 17.5427 93.9015 16.3001 92.0826 16.3001C90.2396 16.3001 89.069 17.6268 89.069 19.7159C89.069 21.805 90.2156 23.0896 92.0886 23.0896C93.5834 23.0896 94.6279 22.3693 94.9221 21.1987H93.6794Z" fill="#1A1369"/>
<path d="M66.2843 20.5494C66.3838 22.1547 67.7216 23.1814 69.7126 23.1814C71.8406 23.1814 73.1721 22.1049 73.1721 20.3876C73.1721 19.0374 72.413 18.2908 70.5713 17.8615L69.582 17.6188C68.4122 17.345 67.9394 16.9779 67.9394 16.3371C67.9394 15.5282 68.6736 14.9993 69.7749 14.9993C70.8202 14.9993 71.5419 15.5157 71.6726 16.3433H73.029C72.9481 14.8313 71.6166 13.7673 69.7935 13.7673C67.8336 13.7673 66.5269 14.8313 66.5269 16.4304C66.5269 17.7495 67.2674 18.5335 68.8913 18.913L70.0486 19.193C71.2371 19.473 71.7597 19.8836 71.7597 20.5681C71.7597 21.3645 70.9384 21.9432 69.8184 21.9432C68.6176 21.9432 67.7838 21.4018 67.6656 20.5494H66.2843Z" fill="#1A1369"/>
<path d="M52.9142 16.3181C52.0257 16.3181 51.2573 16.7623 50.8611 17.5067H50.765V16.4262H49.5224V25.1367H50.8131V21.9731H50.9151C51.2573 22.6634 51.9957 23.0716 52.9262 23.0716C54.5771 23.0716 55.6276 21.769 55.6276 19.6919C55.6276 17.6148 54.5771 16.3181 52.9142 16.3181ZM52.548 21.913C51.4674 21.913 50.7891 21.0606 50.7891 19.6979C50.7891 18.3292 51.4674 17.4767 52.554 17.4767C53.6466 17.4767 54.3009 18.3111 54.3009 19.6919C54.3009 21.0786 53.6466 21.913 52.548 21.913Z" fill="#1A1369"/>
<path d="M60.1439 16.3181C59.2554 16.3181 58.487 16.7623 58.0908 17.5067H57.9948V16.4262H56.7521V25.1367H58.0428V21.9731H58.1448C58.487 22.6634 59.2254 23.0716 60.1559 23.0716C61.8068 23.0716 62.8573 21.769 62.8573 19.6919C62.8573 17.6148 61.8068 16.3181 60.1439 16.3181ZM59.7777 21.913C58.6971 21.913 58.0188 21.0606 58.0188 19.6979C58.0188 18.3292 58.6971 17.4767 59.7837 17.4767C60.8763 17.4767 61.5306 18.3111 61.5306 19.6919C61.5306 21.0786 60.8763 21.913 59.7777 21.913Z" fill="#1A1369"/>
<path d="M47.2067 22.9636H48.6876L45.4458 13.9851H43.9463L40.7046 22.9636H42.1357L42.9632 20.5805H46.3854L47.2067 22.9636ZM44.6245 15.6153H44.7303L46.0307 19.4108H43.3179L44.6245 15.6153Z" fill="#1A1369"/>
<path d="M41.5714 7.21311V11.5444H43.1352C44.4259 11.5444 45.1733 10.749 45.1733 9.36524C45.1733 8.00253 44.4199 7.21311 43.1352 7.21311H41.5714ZM42.2437 7.82543H43.0602C43.9576 7.82543 44.4889 8.39573 44.4889 9.37425C44.4889 10.3678 43.9666 10.9321 43.0602 10.9321H42.2437V7.82543Z" fill="#1A1369"/>
<path d="M47.4623 11.6074C48.4168 11.6074 49.0021 10.9681 49.0021 9.90853C49.0021 8.85497 48.4138 8.21264 47.4623 8.21264C46.5078 8.21264 45.9195 8.85497 45.9195 9.90853C45.9195 10.9681 46.5048 11.6074 47.4623 11.6074ZM47.4623 11.0341C46.901 11.0341 46.5858 10.6229 46.5858 9.90853C46.5858 9.20015 46.901 8.78594 47.4623 8.78594C48.0206 8.78594 48.3387 9.20015 48.3387 9.90853C48.3387 10.6199 48.0206 11.0341 47.4623 11.0341Z" fill="#1A1369"/>
<path d="M53.9865 8.27567H53.3412L52.7589 10.77H52.7078L52.0355 8.27567H51.4171L50.7448 10.77H50.6968L50.1115 8.27567H49.4571L50.3576 11.5444H51.0209L51.6933 9.13712H51.7443L52.4197 11.5444H53.089L53.9865 8.27567Z" fill="#1A1369"/>
<path d="M54.7297 11.5444H55.375V9.63238C55.375 9.12211 55.6782 8.80395 56.1554 8.80395C56.6327 8.80395 56.8608 9.06508 56.8608 9.59036V11.5444H57.5061V9.42827C57.5061 8.65087 57.1039 8.21264 56.3746 8.21264C55.8823 8.21264 55.5581 8.43175 55.399 8.79494H55.351V8.27567H54.7297V11.5444Z" fill="#1A1369"/>
<path d="M58.5225 11.5444H59.1678V7H58.5225V11.5444Z" fill="#1A1369"/>
<path d="M61.5949 11.6074C62.5494 11.6074 63.1347 10.9681 63.1347 9.90853C63.1347 8.85497 62.5464 8.21264 61.5949 8.21264C60.6404 8.21264 60.0521 8.85497 60.0521 9.90853C60.0521 10.9681 60.6374 11.6074 61.5949 11.6074ZM61.5949 11.0341C61.0336 11.0341 60.7184 10.6229 60.7184 9.90853C60.7184 9.20015 61.0336 8.78594 61.5949 8.78594C62.1532 8.78594 62.4714 9.20015 62.4714 9.90853C62.4714 10.6199 62.1532 11.0341 61.5949 11.0341Z" fill="#1A1369"/>
<path d="M65.0575 11.0551C64.7063 11.0551 64.4512 10.884 64.4512 10.5899C64.4512 10.3017 64.6553 10.1487 65.1055 10.1186L65.904 10.0676V10.3408C65.904 10.746 65.5438 11.0551 65.0575 11.0551ZM64.8924 11.5984C65.3216 11.5984 65.6788 11.4123 65.8739 11.0851H65.925V11.5444H66.5463V9.31121C66.5463 8.62085 66.084 8.21264 65.2646 8.21264C64.5232 8.21264 63.995 8.57283 63.9289 9.13412H64.5532C64.6253 8.903 64.8744 8.77093 65.2346 8.77093C65.6758 8.77093 65.904 8.96603 65.904 9.31121V9.59336L65.0185 9.64439C64.2411 9.69241 63.8029 10.0316 63.8029 10.6199C63.8029 11.2172 64.2621 11.5984 64.8924 11.5984Z" fill="#1A1369"/>
<path d="M68.7362 11.5984C69.1865 11.5984 69.5677 11.3853 69.7628 11.0281H69.8138V11.5444H70.4321V7H69.7868V8.79494H69.7388C69.5617 8.43475 69.1835 8.22164 68.7362 8.22164C67.9108 8.22164 67.3795 8.87598 67.3795 9.90853C67.3795 10.9441 67.9048 11.5984 68.7362 11.5984ZM68.9193 8.80094C69.4596 8.80094 69.7988 9.23017 69.7988 9.91153C69.7988 10.5959 69.4626 11.0191 68.9193 11.0191C68.373 11.0191 68.0459 10.6019 68.0459 9.90853C68.0459 9.22117 68.3761 8.80094 68.9193 8.80094Z" fill="#1A1369"/>
<path d="M74.6169 11.6074C75.5714 11.6074 76.1567 10.9681 76.1567 9.90853C76.1567 8.85497 75.5684 8.21264 74.6169 8.21264C73.6624 8.21264 73.0741 8.85497 73.0741 9.90853C73.0741 10.9681 73.6594 11.6074 74.6169 11.6074ZM74.6169 11.0341C74.0556 11.0341 73.7405 10.6229 73.7405 9.90853C73.7405 9.20015 74.0556 8.78594 74.6169 8.78594C75.1752 8.78594 75.4934 9.20015 75.4934 9.90853C75.4934 10.6199 75.1752 11.0341 74.6169 11.0341Z" fill="#1A1369"/>
<path d="M77.011 11.5444H77.6563V9.63238C77.6563 9.12211 77.9595 8.80395 78.4367 8.80395C78.914 8.80395 79.1421 9.06508 79.1421 9.59036V11.5444H79.7874V9.42827C79.7874 8.65087 79.3852 8.21264 78.6558 8.21264C78.1636 8.21264 77.8394 8.43175 77.6803 8.79494H77.6323V8.27567H77.011V11.5444Z" fill="#1A1369"/>
<path d="M82.7596 7.46224V8.29068H82.2403V8.83396H82.7596V10.6799C82.7596 11.3103 83.0448 11.5624 83.7621 11.5624C83.8882 11.5624 84.0083 11.5474 84.1133 11.5294V10.9921C84.0233 11.0011 83.9662 11.0071 83.8672 11.0071C83.546 11.0071 83.4049 10.857 83.4049 10.5148V8.83396H84.1133V8.29068H83.4049V7.46224H82.7596Z" fill="#1A1369"/>
<path d="M84.9796 11.5444H85.6249V9.63538C85.6249 9.14012 85.9191 8.80695 86.4473 8.80695C86.9036 8.80695 87.1467 9.07109 87.1467 9.59336V11.5444H87.792V9.43428C87.792 8.65687 87.3628 8.21564 86.6665 8.21564C86.1742 8.21564 85.829 8.43475 85.6699 8.80094H85.6189V7H84.9796V11.5444Z" fill="#1A1369"/>
<path d="M90.1201 8.76192C90.5973 8.76192 90.9095 9.0951 90.9245 9.60837H89.2736C89.3096 9.0981 89.6428 8.76192 90.1201 8.76192ZM90.9215 10.6619C90.8014 10.9171 90.5343 11.0581 90.1441 11.0581C89.6278 11.0581 89.2946 10.6949 89.2736 10.1216V10.0856H91.5818V9.8605C91.5818 8.83396 91.0325 8.21264 90.1231 8.21264C89.2016 8.21264 88.6163 8.87598 88.6163 9.92053C88.6163 10.9651 89.1896 11.6074 90.1261 11.6074C90.8735 11.6074 91.3957 11.2472 91.5428 10.6619H90.9215Z" fill="#1A1369"/>
<path d="M33.7015 15.5942C33.7171 14.3785 34.37 13.2282 35.4057 12.5914C34.7523 11.6582 33.6579 11.0666 32.5193 11.031C31.3049 10.9035 30.1275 11.7577 29.5087 11.7577C28.8779 11.7577 27.925 11.0436 26.899 11.0647C25.5616 11.1079 24.3148 11.8683 23.6642 13.0375C22.2655 15.4591 23.3088 19.018 24.6486 20.9755C25.3189 21.934 26.1024 23.0046 27.1275 22.9667C28.1306 22.9251 28.5053 22.327 29.7161 22.327C30.9157 22.327 31.2672 22.9667 32.3131 22.9425C33.3895 22.9251 34.0677 21.9798 34.7145 21.0122C35.1962 20.3292 35.5668 19.5744 35.8127 18.7757C34.5477 18.2407 33.7029 16.9677 33.7015 15.5942Z" fill="#1A1369"/>
<path d="M31.7259 9.74367C32.3128 9.03912 32.602 8.13354 32.5319 7.21924C31.6353 7.31341 30.807 7.74195 30.2122 8.41947C29.6305 9.08144 29.3278 9.97109 29.3851 10.8504C30.282 10.8597 31.1638 10.4428 31.7259 9.74367Z" fill="#1A1369"/>
<rect x="0.768293" y="0.768293" width="116.063" height="30.4634" rx="15.2317" stroke="#E8E8E8" stroke-width="1.53659"/>
</svg>
